<svg xmlns="http://www.w3.org/2000/svg" width="400" height="500" fill="none" viewBox="0 0 400 500">
  <path stroke="#264DE4" stroke-width=".7" d="M319 402.5 298.5 423M60 129.5l1-1m-.5 2.5 2.5-2.5m-2.5 4.5 4.5-4.5m-4.5 6.5 6.5-6.5m2 0-8.5 8.5m10.5-8.5-10 10m12-10-12 12m14-12-14 14m16-14L61.5 144M79 128.5 61.5 146M81 128.5 61.5 148M83 128.5l-21 21m23-21-23 23m25-23-25 25m27-25L62.5 155M91 128.5 62.5 157M93 128.5 62.5 159M95 128.5l-32 32m34-32-34 34m36-34-36 36m38-36L63.5 166m39.5-37.5L63.5 168m41.5-39.5L63.5 170m43.5-41.5-43 43m45-43-45 45m47-45-47 47m49-47L64.5 177m50.5-48.5L64.5 179m52.5-50.5L64.5 181m54.5-52.5-54 54m56-54-56 56m58-56-58 58m60-58L65.5 188m61.5-59.5L65.5 190m63.5-61.5L65.5 192m65.5-63.5-65 65m67-65-67 67m69-67-69 69m71-69L66.5 199m72.5-70.5L66.5 201m74.5-72.5L66.5 203m76.5-74.5-76 76m78-76-78 78m80-78-80 80m82-80L67.5 210m83.5-81.5L67.5 212m85.5-83.5L67.5 214m87.5-85.5-87 87m89-87-89 89m91-89-91 91m93-91L68.5 221m94.5-92.5L68.5 223m96.5-94.5L68.5 225m98.5-96.5-98 98m100-98-100 100m102-100-102 102m104-102L114.5 187l-2 2-43 43M175 128.5 115.5 188m-46 46 43.5-43.5m64-62L117.5 188m-48 48 44-44m65.5-63.5L119.5 188M70 237.5l43.5-43.5m67.5-65.5L121.5 188M70 239.5l43.5-43.5m69.5-67.5L123.5 188M70 241.5l44-44m71-69L125.5 188m-55 55 43.5-43.5m73-71L127.5 188m-57 57 43.5-43.5m75-73L129.5 188m-59 59 44-44m76.5-74.5L131.5 188M71 248.5l43.5-43.5m78.5-76.5L133.5 188M71 250.5l43.5-43.5m80.5-78.5L135.5 188M71 252.5l44-44m82-80L137.5 188M71 254.5l44-44m84-82L139.5 188m-68 68 43.5-43.5m86-84L141.5 188m-70 70 44-44m87.5-85.5L143.5 188m-72 72 44-44m89.5-87.5L145.5 188M72 261.5l43.5-43.5m91.5-89.5L147.5 188M72 263.5l43.5-43.5m93.5-91.5L149.5 188M72 265.5l44-44m95-93L151.5 188m-79 79 44-44m96.5-94.5L153.5 188m-81 81 46-46m96.5-94.5L155.5 188m-83 83 48-48m96.5-94.5L157.5 188M73 272.5l49.5-49.5m96.5-94.5L159.5 188M73 274.5l51.5-51.5m96.5-94.5L161.5 188M73 276.5l53.5-53.5m96.5-94.5L163.5 188m-90 90 55-55m96.5-94.5L165.5 188m-92 92 56.909-56.909M227 128.5 203.5 152m-130 130 59-59m69-69-34 34m61.5-59.5L205.5 152M74 283.5l60.5-60.5m67-67-32 32m61.5-59.5L207.5 152M74 285.5l62.5-62.5m65-65-30 30m61.5-59.5L209.5 152M74 287.5l64.5-64.5m63-63-28 28m61.5-59.5L211.5 152m-137 137 66-66m61-61-26 26m61.5-59.5L213.5 152m-139 139 68-68m59-59-24 24m61.5-59.5L215.5 152M75 292.5l69.5-69.5m57-57-22 22m61.5-59.5L217.5 152M75 294.5l71.5-71.5m55-55-20 20m61.5-59.5L219.5 152M75 296.5l73.5-73.5m53-53-18 18m61.5-59.5L221.5 152M75 298.5l75.5-75.5m51-51-16 16m61.5-59.5L223.5 152m-148 148 77-77m49-49-14 14m61.5-59.5L225.5 152m-150 150 79-79m47-47-12 12m61.5-59.5L227.5 152m-152 152 81-81m45-45-10 10m61.5-59.5L229.5 152M76 305.5l43.5-43.5m82-82-8 8M122 259.5l36.5-36.5m96.5-94.5L231.5 152M76 307.5l44-44m81.5-81.5-6 6M124 259.5l36.5-36.5m96.5-94.5L233.5 152m-157 157 43.5-43.5m81.5-81.5-4 4M126 259.5l36.5-36.5m96.5-94.5L235.5 152m-159 159 43.5-43.5m81.5-81.5-2 2m-35 35L128 259.5m133-131-23.481 23.481M76.5 313l44-44m46-46L130 259.5m133-131L239.5 152m-163 163 44-44m48-48L132 259.5m133-131L241.5 152M77 316.5l43.5-43.5m13.5-13.5 36.5-36.5m96.5-94.5L243.5 152M77 318.5l44-44m15-15 36.5-36.5m96.5-94.5L245.5 152M77 320.5l44-44m53.5-53.5L138 259.5m133-131L247.5 152m-170 170 43.5-43.5m55.5-55.5L140 259.5m133-131L249.5 152m-172 172 43.5-43.5m57.5-57.5L142 259.5m133-131L251.5 152m-174 174 44-44m59-59L144 259.5m133-131L253.5 152M78 327.5l43.5-43.5m61-61L146 259.5m133-131L255.5 152M78 329.5l44-44m62.5-62.5L148 259.5m133-131L257.5 152M78 331.5l44-44m64.5-64.5L150 259.5m133-131L259.5 152m-181 181 43.5-43.5m66.5-66.5L152 259.5m133-131L261.5 152m-183 183 43.5-43.5m68.5-68.5L154 259.5m133-131L263.5 152m-185 185 44-44m70-70L156 259.5m133-131L265.5 152M79 338.5l43.5-43.5m72-72L158 259.5m133-131L267.5 152M79 340.5l45.5-45.5m72-72L160 259.5m133-131L269.5 152M79 342.5l47.5-47.5m72-72L162 259.5m133-131L271.5 152m-192 192 49-49m72-72L164 259.5m133-131L273.5 152m-194 194 51-51m71-71L166 259.5m133-131L275.5 152m-196 196 53-53m69-69L168 259.5m133-131L277.5 152M80 349.5l54.5-54.5m66.955-66.955L170 259.5m133-131L279.5 152M80 351.5l56.5-56.5m65-65L172 259.5m133-131L281.5 152M80 353.5l58.5-58.5m63-63L174 259.5m133-131L283.5 152m-203 203 60-60m61.034-61.034L176 259.5m133-131L285.5 152m-205 205 43.5-43.5m1-1 17.5-17.5m59-59L178 259.5m133-131L287.5 152m-207 207 43.5-43.5m3-3 17.5-17.5m57-57L180 259.5m133-131L289.5 152M81 360.5l43.5-43.5m4.5-4.5 17.5-17.5m55-55L182 259.5m133-131L291.5 152M81 362.5l43.5-43.5m6.5-6.5 17.5-17.5m53-53L184 259.5m133-131L293.5 152M81 364.5l43.5-43.5m8.5-8.5 17.5-17.5m51-51L186 259.5m133-131L295.5 152m-214 214 43.5-43.5m10-10 17.5-17.5m49-49L188 259.5m133-131L297.5 152m-216 216 43.5-43.5m12-12 17.5-17.5m47-47L190 259.5m133-131L299.5 152m-218 218 43.5-43.5m14-14 17.5-17.5m45-45-9.5 9.5m133-131L301.5 152M82 371.5l43.5-43.5m15.5-15.5 17.5-17.5m43-43-7.5 7.5m133-131L303.5 152M82 373.5l43.5-43.5m17.5-17.5 17.5-17.5m41-41-5.5 5.5m133-131L305.5 152M82 375.5l43.5-43.5m19.45-19.45L162.5 295m39-39-3.5 3.5m133-131L307.5 152m-225 225 43.5-43.5m21-21 17.5-17.5m37-37-1.5 1.5m133-131L309.5 152m-227 227 43.5-43.5m23-23 17.5-17.5M335 128.5 311.5 152m-229 229 43.5-43.5m25-25 17.5-17.5M337 128.5 313.5 152M83 382.5l43.5-43.5m26.5-26.5 17.5-17.5M339 128.5 315.5 152M83 384.5l43.5-43.5m28.5-28.5 17.5-17.5M341 128.5 317.5 152M83 386.5l43.5-43.5m30.5-30.5 17.5-17.5M343 128.5 317.5 154m-234 234 43.5-43.5m32-32 17.5-17.5M343 130.5 317.5 156m-234 234 43.5-43.5m32.5-32.5 19-19M343 132.5 317.5 158m-234 234 43.5-43.5m32.5-32.5 21-21M343 134.5 317.5 160M84 393.5l43.5-43.5m32.5-32.5 22.5-22.5M343 136.5 317.5 162M84 395.5l43.5-43.5m32.5-32.5 24.5-24.5m158-156-26 26M84 397.5l43.5-43.5m32.5-32.5 26.5-26.5m156-154-26 26m-232 232 43.44-43.44M160.5 323l28-28M342 143.5 316.5 169m-232 232 43.5-43.5m32.5-32.5 30-30M342 145.5 316.5 171m-232 232 43.5-43.5m32.5-32.5 32-32M342 147.5 315.5 174M85 404.5l43.5-43.5m32.5-32.5 33.5-33.5m147-145-26 26M85 406.5l43.5-43.5m32.5-32.5 35.5-35.5m145-143-26 26M85 408.5l43.5-43.5m32.5-32.5 37.5-37.5m143-141-26 26m-230 230 43.5-43.5m32.5-32.5 39-39M341 158.5 314.5 185m-229 229 45-45m70.982-70.982L161.5 338m179-177-26 26M86 415.5l46-46m69.5-69.5L162 339.5M340.5 163l-26 26M86 417.5l47.5-47.5m68-68-39 39m178-176-26 26M87 418.5l48-48m29-29 37.5-37.5M340 167.5 314.5 193m-226 226 48-48m29-29 36-36M340 169.5 313.5 196m-223 223 48-48m28.5-28.5 34.5-34.5m138-136-26 26M92 419.5l48-48m28.5-28.5 33-33m138-136-26 26m-220 220 48-48m29-29 31-31m138-136-26 26M95 420.5l48-48m29-29 29.5-29.5M339 178.5 313.5 204m-217 217 48-48m29-29 28-28M339 180.5 312.5 207M98 421.5l48-48m29-29 26.5-26.5m137-135-26 26m-213 213 48.5-48.5m28.5-28.5 25-25m137-135-26 26M101 422.5l48.5-48.5m28.5-28.5 23.5-23.5m137-135-26 26M103 422.5l48-48m29-29 21.5-21.5M338 189.5 312.5 215m-208 208 48-48m29-29 20-20M338 191.5 311.5 218M106 423.5l48-48m29-29 18.5-18.5m136-134-26 26m-204 204 48-48m29-29 17-17m136-134-26 26M109 424.5l48-48m29-29 15.5-15.5M337 198.5 311.5 224m-201 201 48-48m29-29 14-14M337 200.5 311.5 226M112 425.5l48.5-48.5m29-29 12-12M337 202.5 310.5 229m-197 197 48.5-48.5m29-29 10.5-10.5m135-133-26 26m-195 195 48-48m29-29 9-9m135-133-26 26M117 426.5l48-48m29-29 7.5-7.5m135-133-26 26m-192 192 48-48m29-29 6-6M336 211.5 310.5 237M120 427.5l48-48m29-29 4.5-4.5M336 213.5 309.5 240m-188 188 48-48m29-29 3-3m134-132-26 26M123 428.5l48.5-48.5m28.5-28.5 1.5-1.5m134-132-26 26m-185 185 48.5-48.5M335.5 220l-26 26m-183 183 48-48M335 222.5 309.5 248M128 429.5l48-48m159-157L308.5 251m-179 179 48-48m157-155-26 26M131 430.5l48-48M334.5 229l-26 26m-176 176 48-48m154-152-26 26M134 431.5l48-48m152-150L308.5 259m-173 173 48-48M334 235.5 307.5 262M137 432.5l48.5-48.5m148-146-26 26M139 432.5l48-48M333.5 240l-26 26m-167 167 48-48m145-143-26 26M142 433.5l48-48m143-141L307.5 270m-164 164 48-48M333 246.5 306.5 273M145 434.5l48-48M332.5 249l-26 26m-160 160 48.5-48.5M332.5 251l-26 26M148 435.5l48.5-48.5m136-134-26 26M150 435.5l48-48m134-132L306.5 281m-155 155 48-48M332 257.5 306.5 283M153 436.5l48.5-48.5m130-128-26 26m-151 151 47-47m130-128-26 26M156 437.5l45.5-45.5m130-128-26 26m-148 148 44-44M331 266.5 305.5 292M159 438.5l42.5-42.5M331 268.5 305.5 294m-145 145 41-41M331 270.5 304.5 297m-142 142 39-39m129-127-26 26M164 439.5l37.5-37.5m129-127-26 26m-139 139 36-36M330 277.5 304.5 303M167 440.5l34.5-34.5M330 279.5 304.5 305m-136 136 33-33M330 281.5 304.5 307M170 441.5l31.5-31.5m128-126-26 26m-132 132 30-30m128-126-26 26m-130 130 28-28m128-126-26 26M175 442.5l26.5-26.5M329 290.5 303.5 316m-127 127 25-25M329 292.5 302.5 319M178 443.5l23.5-23.5m127-125-26 26m-123 123 22-22m127-125-26 26M181 444.5l20.5-20.5m127-125-26 26m-120 120 19-19M328 301.5 302.5 327M184 445.5l19.5-19.5M328 303.5 301.5 330M186 445.5l20.5-20.5m121-119-26 26m-114 114 22-22m118-116-26 26M189 446.5l23.5-23.5M327 310.5 301.5 336m-111 111 25-25M327 312.5 301.5 338M192 447.5l25.5-25.5M327 314.5 300.5 341m-107 107 27-27m106-104-26 26M195 448.5l28.5-28.5m103-101-26 26m-104 104 30-30m99.5-97.5L300.5 347m-102 102 31-31m96.5-94.5L300.5 349M200 449.5l31.5-31.5m94.5-92.5L299.5 352m-98 98 33-33m91-89-26 26m-95 95 33-33m88-86-26.038 26.038M207 448.5l33.5-33.5m85-83-26 26m-90 90 34-34m81.5-79.5L299.5 360m-87 87 33-33m79.5-77.5L298.5 363M215 446.5l33.5-33.5m76-74-26 26M218 445.5l33.5-33.5m73-71-26 26m-78 78 34-34m70-68-26 26m-75 75 34-34m66.5-64.5L298.5 371m-72 72 33-33m64.5-62.5L298.5 373M229 442.5l33.5-33.5m61-59-26 26m-65 65 33-33m58-56-26 26m-63 63 34-34m55-53-26 26m-60 60 33-33m52.5-50.5L297.5 382M240 439.5l33.5-33.5m49.5-47.5L297.5 384M243 438.5l33.5-33.5m46-44-26 26m-51 51 34-34m43-41-26 26m-48 48 33-33m41-39-26 26M251 436.5l33.5-33.5m37.5-35.5L296.5 393M254 435.5l33.5-33.5m34.5-32.5-13 13-12.5 12.5m-40 40 34-34m31-29-26 26m-36 36 34-34m28-26L262 433.5m59.5-57.5L265 432.5m56-54L267.5 432m53.5-51.5L270.5 431m50-48L273 430.5m47.5-45.5L276 429.5m44.5-42.5L279 428.5m41-39L281.5 428m38.5-36.5-36 36m35.5-33.5L287 426.5m32.5-30.5L290 425.5m29.5-27.5-27 27m26.5-24.5L295.5 424m5.5-1.5 17.5-17.5m0 2-15 15m14.5-12.5L306.5 421m2.5-.5 9-9m0 2-6 6m2.5-.5 3.5-3.5m0 2-1 1M161.5 336l40-40M341 156.5 314.5 183M129 368.5 85.5 412"/>
  <path stroke="#2965F1" stroke-width=".7" d="m317 166-14-14m-101 71 36.5 36.5M202 225l34.5 34.5M202 227l32.5 32.5M202 229l30.5 30.5M202 231l28.5 28.5M202 233l26.5 26.5M202 235l24.5 24.5M202 237l22.5 22.5M202 239l20.5 20.5M202 241l18.5 18.5M202 243l16.5 16.5M202 245l14.5 14.5M202 247l12.5 12.5M202 249l10.5 10.5M202 251l8.5 8.5M202 253l6.5 6.5M202 255l4.5 4.5M202 257l2.5 2.5m-2.5-.5.5.5M204 223l36.5 36.5m2 0L206 223m2 0 36.5 36.5M210 223l36.5 36.5M212 223l36.5 36.5M214 223l35 35m-33-35 33 33m-31-33 31.5 31.5M220 223l29.5 29.5M222 223l27.5 27.5M224 223l26 26m-24-26 24 24m-22-24 22 22m-20-22 20.5 20.5M232 223l18.5 18.5M234 223l16.5 16.5M236 223l15 15m-13-15 13 13m-11-13 11 11m-9-11 9 9m-7-9 7.5 7.5M246 223l5.5 5.5M248 223l4 4m-2-4 2 2m-50 70 40 40m-40-38 40 40m-40-38 40 40m0 2-40-40m0 2 38 38m-38-36 36.5 36.5M202 307l35 35m-35-33 33.5 33.5M202 311l32 32m-32-30 30.5 30.5M202 315l29 29m-29-27 27.5 27.5M202 319l25.5 25.5M202 321l24 24m-24-22 22.5 22.5M202 325l21 21m-21-19 19.5 19.5M202 329l18 18m-18-16 16 16m-16-14 14.5 14.5M202 335l13 13m-13-11 11.5 11.5M202 339l10 10m-10-8 8.5 8.5M202 343l7 7m-7-5 5.5 5.5M202 347l4 4m-4-2 2 2m-2 0 .5.5M204 295l38.5 38.5M206 295l36.5 36.5M208 295l35 35m-33-35 33 33m-31-33 31 31m-29-31 29 29m-27-29 27.5 27.5M218 295l25.5 25.5M220 295l23.5 23.5M222 295l22 22m-20-22 20 20m-18-20 18 18m-16-18 16.5 16.5M230 295l14.5 14.5M232 295l12.5 12.5M234 295l11 11m-9-11 9 9m-7-9 7 7m-5-7 5 5m-3-5 3.5 3.5M244 295l1.5 1.5M203 152l36 36m-37-35 35 35m-35-33 33 33m-33-31 31 31m-28-36 36 36m-34-36 36 36m-34-36 36 36m-34-36 36 36m-34-36 36 36m-34-36 36 36m-34-36 36 36m-34-36 36 36m-34-36 36 36m-34-36 36 36m-34-36 36 36m-34-36 36 36m-34-36 36 36m-34-36 36 36m-34-36 36 36m-34-36 36 36m-34-36 36 36m-34-36 36 36m-34-36 36 36m-34-36 36 36m-34-36 36 36m-34-36 36 36m-34-36 36 36m-34-36 36 36m-34-36 36 36m-34-36 58 58m-56-58 56 56m0-2-54-54m2 0 53 53m0-2-51-51m2 0 49 49m0-2-47-47m2 0 45 45m0-2-43-43m2 0 42 42m0-2-40-40m2 0 38 38m0-2-36-36m2 0 34 34m0-2-32-32m2 0 30 30m1-1-29-29m2 0 27 27m0-2-25-25m2 0 23 23m0-2-21-21m22 20-20-20m2 0 18 18m0-2-16-16m4 0 12 12m1-1-11-11m2 0 9 9m0-2-7-7m2 0 5 5m0-2-3-3m2 0 1 1m-27 37 22 22m-22.5-20.5L313 214m-22.5-20.5L313 216m-22.5-20.5L312 217m-22-20 22 22m-22-20 22 22m-22-20 22 22m-22.5-20.5L312 225m-22.5-20.5L312 227m-22.5-20.5L311 228m-22-20 22 22m-22-20 22 22m-22-20 22 22m-22.5-20.5L311 236m-22.5-20.5L311 238m-22.5-20.5L310 239m-22-20 22 22m-22-20 22 22m-22-20 22 22m-22.5-20.5L310 247m-22.5-20.5L310 249m-22.5-20.5L309 250m-22-20 22 22m-22-20 22 22m-22-20 22 22m-22.5-20.5L309 258m-22.5-20.5L309 260m-22.5-20.5L308 261m-22-20 22 22m-22-20 22 22m-22-20 22 22m-22.5-20.5L308 269m-22.5-20.5L308 271m-22.5-20.5L307 272m-21.5-19.5L307 274m-22-20 22 22m-22-20 22 22m-22-20 22 22m-22.5-20.5L307 282m-22.5-20.5L307 284m-22.5-20.5L306 285m-22-20 22 22m-22-20 22 22m-22-20 22 22m-22.5-20.5L306 293m-22.5-20.5L306 295m-22.5-20.5L305 296m-22-20 22 22m-22-20 22 22m-22-20 22 22m-22.5-20.5L305 304m-22.5-20.5L305 306m-22.5-20.5L305 308m-23-21 22 22m-22-20 22 22m-22-20 22 22m-22.5-20.5L304 315m-22.5-20.5L304 317m-22.5-20.5L303 318m-22-20 22 22m-22-20 22 22m-22-20 22 22m-22-20 22 22m-22.5-20.5L303 328m-22.5-20.5L302 329m-22-20 22 22m-22-20 22 22m-22-20 22 22m-22-20 22 22m-22.5-20.5L302 339m-22.5-20.5L301 340m-22-20 22 22m-22-20 22 22m-22-20 22 22m-22.5-20.5L301 348m-22.5-20.5L301 350m-22.5-20.5L300 351m-22-20 22 22m-22-20 22 22m-22-20 22 22m-22-20 22 22m-22.5-20.5L300 361m-22.5-20.5L299 362m-21.5-19.5L299 364m-22-20 22 22m-22-20 22 22m-22-20 22 22m-22.5-20.5L299 372m-22.5-20.5L299 374m-22.5-20.5L298 375m-22-20 22 22m-22-20 22 22m-22-20 22 22m-22.5-20.5L298 383m-22.5-20.5L298 385m-22.5-20.5L297 386m-22-20 22 22m-22-20 22 22m0 2-23.5-23.5M297 394l-25-25m25 27-26.5-26.5M296 397l-27-27m27 29-28.5-28.5M295 400l-29-29m27 29-28.5-28.5M292 401l-29-29m27 29-29-29m28 30-29.5-29.5M287 402l-29-29m28 30-29.5-29.5M284 403l-29-29m28 30-29.5-29.5M281 404l-29-29m27 29-29-29m28 30-29.5-29.5M276 405l-29-29m28 30-29.5-29.5M273 406l-29-29m28 30-30-30m28 30-29.5-29.5M268 407l-29-29m28 30-29.5-29.5M265 408l-29-29m28 30-30-30m28 30-29.5-29.5M261 410l-30-30m28 30-29.5-29.5M257 410l-29-29m28 30-29.5-29.5M254 411l-29-29m28 30-29.5-29.5M251 412l-29-29m28 30-29.5-29.5M248 413l-29-29m28 30-30-30m28 30-29.5-29.5M243 414l-29-29m28 30-29.5-29.5M240 415l-29-29m28 30-30-30m28 30-29.5-29.5M236 417l-30-30m28 30-29.5-29.5M233 418l-30-30m28 30-29-29m27 29-27-27m26 28-26-26m24 26-24-24m23 25-23-23m0 2 21 21m-21-19 20 20m-20-18 18 18m-18-16 17 17m-17-15 15 15m-15-13 13 13m-13-11 12 12m-12-10 10 10m-10-8 9 9m-9-7 7 7m-7-5 6 6m19-237-25-25m0 258 4 4m-4-2 3 3m-3-1 1 1m28-238-29-29m0 2 27 27m-27-23 23 23m-2 0-21-21m0 2 19 19m-2 0-17-17m0 2 15 15m-2 0-13-13m0 2 11 11m-2 0-9-9m0 2 7 7m-2 0-5-5m0 2 3 3m-2 0-1-1"/>
  <path stroke="#2965F1" stroke-width="5" d="M170.5 48H127v56.5h43.5v-19h-25V68h25V48Z"/>
  <path stroke="#264DE4" stroke-width="5" d="M184 48h-5.5v34h25v7h-25v16h44V73h-25v-7h25V48H184Z"/>
  <path stroke="#2965F1" stroke-width="5" d="M236.5 48H231v34h25v7h-25v16h44V73h-25v-7h25V48h-38.5Z"/>
</svg>
