<svg xmlns="http://www.w3.org/2000/svg" width="400" height="500" fill="none" viewBox="0 0 400 500">
  <path stroke="#F24E1E" d="M142 125.5h58m-65 2h65m-72 2h71.999m.002 2H123m-4 2h81m0 2h-84m84 2h-87m-2 2h89m.001 2H108.5m-1.5 2h92.999m.001 2h-95m-1.5 2h96.499m.001 2h-97.5m-1.5 2h99.001m-.001 2H100m-1 2h101m0 2H98m-1 2h102.999m.001 2H96.5m-1 2h104.501m-.001 2H95m-.5 2H200m.001 2H94m0 2h106m.001 2H93.5m0 2H200m-.001 2H93.5m-.5 2h107m-.001 2H93.5m0 2H200m.001 2H93.5m.5 2h105.999m.001 2H94m.5 2H200m0 2H95m.5 2H200m-.001 2H96m1 2h103.001m-.001 2H97.5m102.5 2H98.5m1 2h100.499m.001 2h-99.5m1 2H200m.001 2H103m1.5 2H200m.001 2H106m2 2h91.999m.001 2h-90.5m2.5 2h88m0 2h-85.5m2.5 2h83.001m-.001 2h-79.5m4.5 2h75m0 2h-68m67.999 2H142"/>
  <path stroke="#A259FF" d="M142 235.5h58m-65 2h65m-72 2h71.999m.002 2H123m-4 2h81m0 2h-84m84 2h-87m-2 2h89m.001 2H108.5m-1.5 2h92.999m.001 2h-95m-1.5 2h96.499m.001 2h-97.5m-1.5 2h99.001m-.001 2H100m-1 2h101m0 2H98m-1 2h102.999m.001 2H96.5m-1 2h104.501m-.001 2H95m-.5 2H200m.001 2H94m0 2h106m.001 2H93.5m0 2H200m-.001 2H93.5m-.5 2h107m-.001 2H93.5m0 2H200m.001 2H93.5m.5 2h105.999m.001 2H94m.5 2H200m0 2H95m.5 2H200m-.001 2H96m1 2h103.001m-.001 2H97.5m102.5 2H98.5m1 2h100.499m.001 2h-99.5m1 2H200m.001 2H103m1.5 2H200m.001 2H106m2 2h91.999m.001 2h-90.5m2.5 2h88m0 2h-85.5m2.5 2h83.001m-.001 2h-79.5m4.5 2h75m0 2h-68m67.999 2H134.5"/>
  <path stroke="#FF7262" d="M259 125.5h-58m65 2h-65m72 2h-71.999m-.002 2H278m4 2h-81m0 2h84m-84 2h87m2 2h-89m-.001 2H292.5m1.5 2h-92.999m-.001 2h95m1.5 2h-96.499m-.001 2h97.5m1.5 2h-99.001m.001 2h100m1 2H201m0 2h102m1 2H201.001m-.001 2h103.5m1 2H200.999m.001 2h105m.5 2H201m-.001 2H307m0 2H201m-.001 2H307.5m0 2H201m.001 2H307.5m.5 2H201m.001 2H307.5m0 2H201m-.001 2H307.5m-.5 2H201.001m-.001 2h106m-.5 2H201m0 2h105m-.5 2H201m.001 2H305m-1 2H200.999m.001 2h102.5m-102.5 2h101.5m-1 2H201.001m-.001 2h99.5m-1 2H201m-.001 2H298m-1.5 2H201m-.001 2H295m-2 2h-91.999m-.001 2h90.5m-2.5 2h-88m0 2h85.5m-2.5 2h-83.001m.001 2h79.5m-4.5 2h-75m0 2h68m-67.999 2H266.5"/>
  <path stroke="#0ACF83" d="M200 345.5h-68m68 2h-74m74 2h-78m78 2h-81m81 2h-84m84 2h-87m87 2h-89m89 2h-91m91 2h-93m93 2h-94.5m94.5 2h-96m96 2h-97.5m97.5 2h-98.5m98.5 2h-99.5m99.5 2H99.5m100.5 2H98.5m101.5 2H97.5m102.5 2H97m103 2H96.5m103.5 2H96m104 2H95.5m104.5 2H95m105 2H94.5m105.501 2H94.5m105.5 2H94m106 2H94m106 2H94m0 2h106m-.5 2h-105m105 2h-105m104.5 2H95m104 2H95m103.5 2h-103m102.5 2H96m101.5 2h-101m100 2h-99m.5 2h98m-1 2H99m95 2h-94m1 2h92m-1 2h-90m1.5 2h87m-1.5 2h-84m82.5 2h-81m1.5 2h78m-2 2h-74m2 2h70m-2.5 2h-65m2.5 2h60m-3.5 2H120m4 2h46m-5 2h-36m7 2h22"/>
  <path stroke="#1ABCFE" d="M251 235.5h6m10.725 2h-28.401m-5.699 2h39.748m4.208 2H229.41m-3.41 2h55m3 2h-61m-2.5 2h66m2.255 2h-70.54m-2.004 2h74.591m1.839 2h-78.286m-1.652 2h81.578m1.52 2c-33.195.195-51.405.195-84.6 0m-1.355 2h87.318m1.242 2h-89.802m-1.104 2h92m1.051 2h-94.096m-.91 2h95.916m.82 2h-97.59m98.309 2h-99m-.65 2h100.314m-100.877 2h101.436m.48 2H202.307m-.42 2h103.215m.328 2H201.5m-.195 2H305.68m.179 2H201m0 2h104.973m-62.473 54h20.105m7.195-2H239m-7.5-2h44.102m3.798-2h-51.795m-3.105-2h58.035m2.727-2h-63.485m-2.441-2h68.324m2.144-2h-72.593m-1.924-2h76.453m1.74-2H213.5m-1.5-2h83.067m1.433-2h-86m-1.5-2h88.793m1.177-2H208m-1-2h93.053m.947-2h-95m-1-2h96.886m.768-2h-98.156m98.844-2H203.5m-.5-2h100.939m-101.439-2h101.968m.438-2H202m-.268-2h103.541m.289-2H201.5m-.287-2h104.564m.153-2H201m0-2h105"/>
  <path fill="#F24E1E" d="M99.86 97V48h7.56v49h-7.56Zm3.36-20.86v-7.28h25.27v7.28h-25.27Zm0-20.86V48h28.42v7.28h-28.42Z"/>
  <path fill="#A259FF" d="M144.23 97V60.25h7.21V97h-7.21Zm3.5-44.87c-1.54 0-2.73-.397-3.57-1.19-.84-.793-1.26-1.913-1.26-3.36 0-1.353.42-2.45 1.26-3.29.887-.84 2.077-1.26 3.57-1.26 1.54 0 2.73.397 3.57 1.19.84.793 1.26 1.913 1.26 3.36 0 1.353-.443 2.45-1.33 3.29-.84.84-2.007 1.26-3.5 1.26Z"/>
  <path fill="#0ACF83" d="M179.49 113.1c-2.613 0-5.227-.42-7.84-1.26-2.567-.793-4.643-1.843-6.23-3.15l2.66-5.6c.933.7 2.03 1.307 3.29 1.82 1.26.56 2.59.98 3.99 1.26 1.4.327 2.777.49 4.13.49 2.567 0 4.713-.42 6.44-1.26 1.727-.84 3.033-2.077 3.92-3.71s1.33-3.663 1.33-6.09v-7.07l.77.49c-.233 1.447-1.003 2.847-2.31 4.2-1.26 1.307-2.847 2.38-4.76 3.22-1.913.84-3.873 1.26-5.88 1.26-3.5 0-6.627-.817-9.38-2.45-2.707-1.68-4.853-3.943-6.44-6.79-1.587-2.893-2.38-6.183-2.38-9.87 0-3.687.77-6.953 2.31-9.8 1.587-2.893 3.733-5.157 6.44-6.79 2.753-1.68 5.833-2.52 9.24-2.52 1.4 0 2.753.187 4.06.56 1.307.327 2.52.817 3.64 1.47a17.871 17.871 0 0 1 3.01 2.03c.887.747 1.61 1.54 2.17 2.38.56.84.91 1.633 1.05 2.38l-1.54.56v-8.61h7.21v34.51c0 2.94-.443 5.53-1.33 7.77-.84 2.287-2.077 4.2-3.71 5.74-1.633 1.587-3.617 2.777-5.95 3.57-2.333.84-4.97 1.26-7.91 1.26Zm.28-22.05c2.287 0 4.317-.537 6.09-1.61 1.773-1.073 3.15-2.543 4.13-4.41s1.47-4.013 1.47-6.44c0-2.427-.513-4.573-1.54-6.44-.98-1.913-2.357-3.407-4.13-4.48-1.727-1.073-3.733-1.61-6.02-1.61-2.24 0-4.247.56-6.02 1.68-1.727 1.073-3.103 2.567-4.13 4.48-.98 1.867-1.47 3.99-1.47 6.37s.49 4.527 1.47 6.44c1.027 1.867 2.403 3.337 4.13 4.41 1.773 1.073 3.78 1.61 6.02 1.61Z"/>
  <path fill="#FF7262" d="M207.9 97V60.25h7.28v7.84l-1.33.84c.373-1.213.957-2.38 1.75-3.5.84-1.12 1.843-2.1 3.01-2.94a16.309 16.309 0 0 1 3.85-2.1c1.4-.513 2.823-.77 4.27-.77 2.1 0 3.943.35 5.53 1.05a9.572 9.572 0 0 1 3.92 3.15c1.027 1.4 1.773 3.15 2.24 5.25l-1.12-.28.49-1.19a11.675 11.675 0 0 1 2.1-3.01 16.92 16.92 0 0 1 3.15-2.59 15.857 15.857 0 0 1 3.71-1.75c1.307-.42 2.59-.63 3.85-.63 2.753 0 5.017.56 6.79 1.68 1.82 1.12 3.173 2.823 4.06 5.11.933 2.287 1.4 5.133 1.4 8.54V97h-7.28V75.37c0-2.1-.28-3.803-.84-5.11-.513-1.353-1.307-2.357-2.38-3.01-1.073-.653-2.45-.98-4.13-.98a9.895 9.895 0 0 0-3.71.7 8.661 8.661 0 0 0-2.94 1.82 8.44 8.44 0 0 0-1.96 2.8c-.467 1.027-.7 2.17-.7 3.43V97h-7.28V75.23c0-1.913-.28-3.523-.84-4.83-.56-1.353-1.377-2.38-2.45-3.08-1.073-.7-2.38-1.05-3.92-1.05-1.307 0-2.52.233-3.64.7a8.661 8.661 0 0 0-2.94 1.82 7.721 7.721 0 0 0-1.96 2.73c-.467 1.027-.7 2.147-.7 3.36V97h-7.28Z"/>
  <path fill="#1ABCFE" d="M282.18 97.7c-3.033 0-5.81-.84-8.33-2.52-2.473-1.68-4.457-3.967-5.95-6.86-1.493-2.893-2.24-6.16-2.24-9.8 0-3.687.747-6.953 2.24-9.8 1.54-2.893 3.593-5.157 6.16-6.79 2.613-1.633 5.53-2.45 8.75-2.45 1.913 0 3.663.28 5.25.84 1.587.56 2.963 1.353 4.13 2.38a12.115 12.115 0 0 1 2.94 3.43 10.535 10.535 0 0 1 1.47 4.2l-1.61-.56v-9.52h7.28V97h-7.28v-8.75l1.68-.49c-.28 1.26-.863 2.497-1.75 3.71-.84 1.167-1.937 2.217-3.29 3.15-1.307.933-2.777 1.68-4.41 2.24-1.587.56-3.267.84-5.04.84Zm1.89-6.65c2.193 0 4.13-.537 5.81-1.61 1.68-1.073 2.987-2.543 3.92-4.41.98-1.913 1.47-4.083 1.47-6.51 0-2.38-.49-4.503-1.47-6.37-.933-1.867-2.24-3.337-3.92-4.41-1.68-1.073-3.617-1.61-5.81-1.61-2.147 0-4.06.537-5.74 1.61-1.633 1.073-2.94 2.543-3.92 4.41-.933 1.867-1.4 3.99-1.4 6.37 0 2.427.467 4.597 1.4 6.51.98 1.867 2.287 3.337 3.92 4.41 1.68 1.073 3.593 1.61 5.74 1.61Z"/>
</svg>
