<svg xmlns="http://www.w3.org/2000/svg" width="400" height="300" fill="none" viewBox="0 0 400 300">
  <g class="Frame 17">
    <g class="Archives">
      <g class="Group 26">
        <g class="Group 30">
          <path stroke="#112022" stroke-width="2" d="m296 228.583 1.013-1.013a10.001 10.001 0 0 1 7.071-2.929h53.523a10 10 0 0 1 7.285 3.15l.745.792" class="Vector 1903"/>
          <path stroke="#112022" stroke-width="2" d="M360.637 268H301a5 5 0 0 1-5-5v-47.812a5 5 0 0 1 5-5h16.673a5 5 0 0 1 2.812.866l8.404 5.714a5 5 0 0 0 2.811.866h28.937a5 5 0 0 1 5 5V263a5 5 0 0 1-5 5Z" class="Vector 1902"/>
        </g>
        <circle cx="330.599" cy="246.54" r="17.457" stroke="#112022" class="Ellipse 322"/>
        <path stroke="#112022" d="m339.359 253.109 6.131-6.569-5.693-6.57h-3.066l-.438 3.066 2.628 3.504-2.628 2.627v3.066l3.066.876Z" class="Vector 1916"/>
        <path stroke="#112022" d="m321.841 239.532-6.132 6.57 6.569 7.445 3.066-3.504-2.628-3.941 2.628-4.38-3.503-2.19Z" class="Vector 1917"/>
        <path stroke="#112022" d="m325.344 256.175 5.693-20.585 3.066-.876 1.752 2.19-5.256 20.585-3.503.876-1.752-2.19Z" class="Vector 1915"/>
      </g>
      <g class="Group 27">
        <g class="Group 29">
          <path stroke="#112022" stroke-width="2" d="M229.64 267.81h-59.204a5 5 0 0 1-5-5V215a5 5 0 0 1 5-5h16.521c1.008 0 1.992.304 2.823.873l8.328 5.699a5.001 5.001 0 0 0 2.824.873h28.708a5 5 0 0 1 5 5v40.365a5 5 0 0 1-5 5Z" class="Vector 1900"/>
          <path stroke="#112022" stroke-width="2" d="m234.64 228.394-.549-.553a10.003 10.003 0 0 0-7.093-2.951h-54.395a9.998 9.998 0 0 0-7.546 3.439l-.057.065" class="Vector 1904"/>
        </g>
        <path stroke="#112022" d="M217.165 246.35c0 9.644-7.769 17.456-17.345 17.456-9.577 0-17.345-7.812-17.345-17.456 0-9.643 7.768-17.456 17.345-17.456 9.576 0 17.345 7.813 17.345 17.456Z" class="Ellipse 320"/>
        <path stroke="#112022" d="m208.525 252.92 6.094-6.57-5.658-6.569h-3.047l-.435 3.066 2.611 3.503-2.611 2.628v3.066l3.046.876Z" class="Vector 1910"/>
        <path stroke="#112022" d="m191.115 239.343-6.094 6.569 6.529 7.446 3.047-3.504-2.612-3.942 2.612-4.379-3.482-2.19Z" class="Vector 1911"/>
        <path stroke="#112022" d="m194.598 255.985 5.658-20.584 3.047-.876 1.741 2.19-5.223 20.584-3.482.876-1.741-2.19Z" class="Vector 1909"/>
      </g>
      <g class="Group 28">
        <g class="Group 31">
          <path stroke="#112022" stroke-width="2" d="M99.64 267.81H40.435a5 5 0 0 1-5-5V215a5 5 0 0 1 5-5h16.522a5 5 0 0 1 2.823.873l8.328 5.699a5 5 0 0 0 2.824.873H99.64a5 5 0 0 1 5 5v40.365a5 5 0 0 1-5 5Z" class="Vector 1899"/>
          <path stroke="#112022" stroke-width="2" d="m104.64 227.956-.549-.553a10.003 10.003 0 0 0-7.093-2.95H42.603a10 10 0 0 0-7.546 3.438l-.057.065" class="Vector 1905"/>
        </g>
        <path stroke="#112022" d="M87.165 245.912c0 9.644-7.769 17.456-17.345 17.456-9.577 0-17.345-7.812-17.345-17.456 0-9.643 7.768-17.456 17.345-17.456 9.577 0 17.345 7.813 17.345 17.456Z" class="Ellipse 319"/>
        <path stroke="#112022" d="m78.525 252.482 6.094-6.57-5.659-6.569h-3.046l-.436 3.066 2.612 3.503-2.612 2.628v3.066l3.047.876Z" class="Vector 1907"/>
        <path stroke="#112022" d="m61.115 238.905-6.093 6.569 6.528 7.446 3.047-3.504-2.611-3.942 2.611-4.379-3.482-2.19Z" class="Vector 1908"/>
        <path stroke="#112022" d="m64.598 255.547 5.658-20.584 3.047-.875 1.74 2.189-5.222 20.584-3.482.876-1.741-2.19Z" class="Vector 1906"/>
      </g>
    </g>
    <g class="Server">
      <path stroke="#112022" stroke-width="2" d="M204.271 132.779h23.305" class="Vector 1927"/>
      <path stroke="#112022" stroke-width="2" d="M227.725 129H172a3 3 0 0 0-3 3v5.967a3 3 0 0 0 3 3h55.725a3 3 0 0 0 3-3V132a3 3 0 0 0-3-3Z" class="Vector 1918"/>
      <path stroke="#112022" stroke-width="2" d="M227.725 146.951H172a3 3 0 0 0-3 3v5.967a3 3 0 0 0 3 3h55.725c1.656 0 3-1.344 3-3v-5.967a3 3 0 0 0-3-3Z" class="Vector 1919"/>
      <path stroke="#112022" stroke-width="2" d="M227.725 164.901H172a3 3 0 0 0-3 3v5.967a3 3 0 0 0 3 3h55.725a3 3 0 0 0 3-3v-5.967a3 3 0 0 0-3-3Z" class="Vector 1920"/>
      <path stroke="#112022" stroke-width="2" d="M173.725 140.967v5.984" class="Vector 1921"/>
      <path stroke="#112022" stroke-width="2" d="M226 140.967v5.984" class="Vector 1922"/>
      <path stroke="#112022" stroke-width="2" d="M225.686 158.918v6.298" class="Vector 1923"/>
      <path stroke="#112022" stroke-width="2" d="M173.408 158.918v5.983" class="Vector 1924"/>
      <path stroke="#112022" stroke-width="2" d="M173.725 176.868v3.984a2 2 0 0 0 2 2h5.61a2 2 0 0 0 1.77-1.069l2.587-4.915" class="Vector 1925"/>
      <path stroke="#112022" stroke-width="2" d="M226.001 176.868v3.984a2 2 0 0 1-2 2h-5.715a1.999 1.999 0 0 1-1.691-.932l-3.191-5.052" class="Vector 1926"/>
      <path stroke="#112022" stroke-width="2" d="M203.957 136.873h11.337" class="Vector 1928"/>
      <path stroke="#112022" stroke-width="2" d="M218.127 136.873h3.464" class="Vector 1929"/>
      <path stroke="#112022" stroke-width="2" d="M224.111 136.873h3.464" class="Vector 1930"/>
      <path stroke="#112022" stroke-width="2" d="M204.271 151.044h23.305" class="Vector 1931"/>
      <path stroke="#112022" stroke-width="2" d="M203.957 155.138h11.337" class="Vector 1932"/>
      <path stroke="#112022" stroke-width="2" d="M218.127 155.138h3.464" class="Vector 1933"/>
      <path stroke="#112022" stroke-width="2" d="M224.111 155.138h3.464" class="Vector 1934"/>
      <path stroke="#112022" stroke-width="2" d="M204.271 168.68h23.305" class="Vector 1935"/>
      <path stroke="#112022" stroke-width="2" d="M203.957 172.774h11.337" class="Vector 1936"/>
      <path stroke="#112022" stroke-width="2" d="M218.127 172.774h3.464" class="Vector 1937"/>
      <path stroke="#112022" stroke-width="2" d="M224.111 172.774h3.464" class="Vector 1938"/>
    </g>
    <g class="Dots">
      <circle cx="174.669" cy="134.984" r="3.149" fill="#112022" class="Ellipse 323"/>
      <circle cx="182.856" cy="134.984" r="3.149" fill="#112022" class="Ellipse 324"/>
      <circle cx="191.044" cy="134.984" r="3.149" fill="#112022" class="Ellipse 325"/>
      <circle cx="174.669" cy="153.249" r="3.149" fill="#112022" class="Ellipse 326"/>
      <circle cx="182.856" cy="153.249" r="3.149" fill="#112022" class="Ellipse 327"/>
      <circle cx="191.044" cy="153.249" r="3.149" fill="#112022" class="Ellipse 328"/>
      <circle cx="174.669" cy="170.885" r="3.149" fill="#112022" class="Ellipse 329"/>
      <circle cx="182.856" cy="170.885" r="3.149" fill="#112022" class="Ellipse 330"/>
      <circle cx="191.044" cy="170.885" r="3.149" fill="#112022" class="Ellipse 331"/>
    </g>
    <g class="Cloud">
      <path stroke="#112022" stroke-width="3" d="M262 109c-7 2-70 0-70 0s-48.729 16.16-71.5 0c-4.734-3.36-5.628-3.891-11-10-4.025-4.577-6.243-10.619-5.999-16 .265-5.844 1.888-12.757 6.999-17 6.591-5.472 15-7.5 15-7.5s-2.102-12.159 1.5-24c2.745-9.026 10.866-16.368 18.5-19.5 8.855-3.633 21.934-2.935 31 3 9.637 6.31 14 16.5 14 16.5s7.238-6.827 17-10c7.438-2.418 16.262-1.007 22.5 2 6.533 3.15 13.532 10.16 16.5 17.5 3.076 7.61 2.5 14.5 2.5 14.5s11.981-.832 21 4.5c6.276 3.71 9.925 11.711 10.5 18 .467 5.118-.859 12.289-4 17-5 7.5-7.697 9.056-14.5 11Z" class="Vector 1939"/>
      <path stroke="#112022" stroke-linecap="round" stroke-width="3" d="M140.005 52.816c-.176-8.94 4.715-16 12-19.5 5.994-2.88 16.67-2.78 23.5 3.5" class="Vector 1940"/>
    </g>
    <g class="Transfer">
      <path stroke="#112022" stroke-dasharray="4 4" stroke-linecap="round" stroke-width="2" d="M162.5 153H71a1 1 0 0 0-1 1v58.5" class="Vector 1941"/>
      <path stroke="#112022" stroke-dasharray="4 4" stroke-linecap="round" stroke-width="2" d="M238 153h91.5a1 1 0 0 1 1 1v58.5" class="Vector 1942"/>
      <path stroke="#112022" stroke-dasharray="4 4" stroke-linecap="round" stroke-width="2" d="M200 213v-30" class="Vector 1943"/>
      <path stroke="#112022" stroke-dasharray="4 4" stroke-linecap="round" stroke-width="2" d="M200 125.5V113" class="Vector 1944"/>
    </g>
  </g>
</svg>
