<svg xmlns="http://www.w3.org/2000/svg" width="400" height="500" fill="none" viewBox="0 0 400 500">
  <path stroke="#F16524" stroke-width=".7" d="m200 154 2-2m-2 4 4-4m-4 6 6-6m-6 8 8-8m-8 10 10-10m-10 12 12-12m-12 14 14-14m-14 16 16-16m2 0-18 18m0 2 20-20m2 0-22 22m0 2 24-24m2 0-26 26m0 2 28-28m-28 30 30-30m2 0-32 32m0 2 34-34m-34 36 36-36m-34 36 36-36m-34 36 36-36m-34 36 36-36m-34 36 36-36m-26 36 36-36m-34 36 36-36m-34 36 36-36m-34 36 36-36m-50 36 36-36m-34 36 36-36m-34 36 36-36m-34 36 36-36m-26 36 36-36m-34 36 36-36m-34 36 36-36m-34 36 36-36m-26 36 36-36m-34 36 36-36m-34 36 36-36m-34 36 36-36m-50 36 36-36m-34 36 36-36m-34 36 36-36m-34 36 36-36m-26 36 36-36m-34 36 36-36m-34 36 36-36m-34 36 36-36m-26 36 36-36m-34 36 36-36m-34 36 36-36m-34 36 36-36m-50 36 36-36m-34 36 36-36m-34 36 36-36m-34 36 36-36m-26 36 36-36m-34 36 36-36m-34 36 36-36m-34 36 36-36m-28 38 27-27m-27 29 27-27m-27 29 27-27m-27 29 26-26m-26 28 26-26m-26.5 28.5L314 174m-26.5 28.5L314 176m-27 29 27-27m-27 29 26-26m-26.5 28.5L313 183m-26.5 28.5L313 185m-26.5 28.5L313 187m-27 29 27-27m-27 29 26-26m-26 28 26-26m-26.5 28.5L312 196m-62 64 62-62m-60 62 60-60m-58 60 57-57m-55 57 55-55m-53 55 53-53m-51 53 51-51m-49 51 49-49m-47 49 46-46m-44 46 44-44m-42 44 42-42m-40 42 40-40m-38 40 37-37m-35 37 35-35m-33 35 33-33m-31 33 31-31m-29 31 29-29m-27 29 27-27m-27.5 29.5L308 236m-26.5 28.5L308 238m-26.5 28.5L308 240m-26.5 28.5L308 242m-27 29 27-27m-27 29 27-27m-27 29 26-26m-26 28 26-26m-26.5 28.5L307 253m-26.5 28.5L307 255m-26.5 28.5L307 257m-27 29 27-27m-98.5 90.5 33-33m-30 32 30-30m-27 29L241 321m-24 26 24-24m-21 23 21-21m-18.5 20.5 18-18M225 345l15.5-15.5m-13 15 13-13M230 344l10-10m-7 9 7-7m-4 6 4-4m-1.5 3.5 1.5-1.5m-40 8 42.5-42.5M200 350l42.5-42.5M200 352l42-42m-42 32 43-43m-43 45 43-43m-43 45 43-43m-43 33 41-41m-41 43 43-43m-43 45 43-43m-43 33 35-35m-35 37 37-37m-37 39 39-39m-39 31 31-31m-31 33 33-33m-33 25 25-25m-25 27 27-27m-27 29 29-29m-29 21 21-21m-21 23 23-23m-23 15 15-15m-15 17 17-17m-17 19 19-19m-19 11 11-11m-11 13 13-13m-13 5 5-5m-5 3 3-3m-3 1 1-1m-1 7 7-7m-7 9 9-9m-5.5 55.5L242 312m-36 38 36-36m38-26 26-26m-29 59 26-26m-26.5 28.5L303 297m-26.5 28.5L303 299m-27 29 27-27m-27 29 26-26m-26.5 28.5L302 306m-26.5 28.5L302 308m-26.5 28.5L302 310m-27 29 27-27m-27 29 26-26m-26 28 26-26m-26.5 28.5L301 319m-26.5 28.5L301 321m-27 29 27-27m-27 29 27-27m-27 29 26-26m-26.5 28.5L300 330m-26.5 28.5L300 332m-27 29 27-27m-27 29 27-27m-27 29 26-26m-26.5 28.5L299 341m-99 67 27-27m-27 29 30-30m-30 32 33-33m-33 35 35.5-35.5M200 416l38-38m-38 40 41-41m-41 43 44-44m-44 46 46-46m-46 48 49-49m-48 50 51-51m-48 50 50.5-50.5M206 424l51-51m-48 50 51-51m-48 50 51-51m-48 50 51-51m-49 51 51-51m-48 50 51-51m-48 50 76-76m-73 75 73-73m-71 73 71-71m-68 70 67-67m-64 66 64-64m-61 63 61-61m-58 60 58-58m-56 58 56-56m-53 55 52-52m-49 51 49-49m-46 48 46-46m-44 46 44-44m-41 43 41-41m-38 40 37-37m-34 36 34-34m-32 34 32-32m-29 31 29-29m-26 28 26-26m-23 25 22-22m-19 21 19-19m-17 19 17-17m-14 16 14-14m-11 13 11-11m-8 10 7-7m-5 7 5-5m-2 4 2-2m-94 8 24.5-24.5M200 392l5-5m-5 3 2-2m-2 16 22-22m-22 20 19-19m-19 17 16-16m-16 14 13-13m-13 11 10.5-10.5M200 394l8-8m71.5-95.5L306 264m-26.5 28.5L306 266m-27 29 27-27m-27 29 27-27m-27 29 26-26m-26.5 28.5L305 275m-26.5 28.5L305 277m-27.5 29.5L305 279m-27 29 26-26m-26 28 26-26m-26.5 28.5L304 286m-26.5 28.5L304 288m-27 29 27-27m-27.5 29.5L303 293m-79-33 37-37m-35 37 37-37m-35 37 37-37m-35 37 37-37m-35 37 37-37m-35 37 37-37m-35 37 37-37m-35 37 37-37m-35 37 37-37m-35 37 37-37m-35 37 37-37m-35 37 37-37m-35 37 37-37m-85 35 35-35m-35 33 33-33m-33 31 31-31m-31 29 29-29m-29 37 37-37m-37 25 25-25m-25 23 23-23m-23 21 21-21m-21 19 19-19m-19 27 27-27m-27 15 15-15m-15 13 13-13m-13 11 11-11m-11 9 9-9m-9 17 17-17m-17 5 5-5m-5 3 3-3m-3 1 1-1m-1 7 7-7m-5 37 37-37m-35 37 37-37m-35 37 37-37m-35 37 37-37m-35 37 37-37m-35 37 37-37m-35 37 37-37m-35 37 37-37m-35 37 37-37m-35 37 37-37m-35 37 37-37m23-35 34-34m-32 34 32-32m-30 32 29-29m-27.5 29.5L315 161"/>
  <path stroke="#F23526" stroke-width=".7" d="m200 155-3-3-1-1-5-5-5-5-13-13m27 25-3-3-1-1-5-5-5-5-11-11m26 24-4-4-1-1-5-5-5-5-9-9m26 24-6-6-1-1-5-5-5-5-7-7m26 24-8-8-1-1-5-5-5-5-5-5m26 24-10-10-1-1-5-5-5-5-3-3m26 24-12-12-1-1-5-5-5-5-1-1m26 24-14-14-1-1-5-5-3.5-3.5-.5-.5m26 24-4-4-1-1-5-5-5-5-9-9m26 24-6-6-1-1-5-5-5-5-7-7m26 24-8-8-1-1-5-5-5-5-5-5m26 24-10-10-1-1-5-5-5-5-3-3m26 24-12-12-1-1-5-5-5-5-1-1m26 24-14-14-1-1-5-5-3.5-3.5-.5-.5m1 295-8.5-8.5-1-1-5-5-4-4-29-29M200 421l-8.5-8.5-1-1-5-5-4-4-26-26M200 419l-8.5-8.5-1-1-5-5-4-4L158 377m42 40-8.5-8.5-1-1-5-5-4-4-21-21M200 415l-8.5-8.5-1-1-5-5-4-4-18-18M200 413l-8.5-8.5-1-1-5-5-4-4-15-15M200 411l-8.5-8.5-1-1-5-5-4-4-12-12M200 409l-8.5-8.5-1-1-5-5-4-4-9.5-9.5m28 26-8.5-8.5-1-1-5-5-4-4-7-7M200 405l-8.5-8.5-1-1-5-5-4-4-4-4M200 403l-8.5-8.5-1-1-5-5-4-4-1.5-1.5m20 18-8.5-8.5-1-1-5-5-2.5-2.5m17 15-8.5-8.5-1-1-4.5-4.5m14 12-8.5-8.5-3-3M200 395l-8.5-8.5m8.5 6.5-6-6m6 4-3-3m3 1-1-1m1-201-8.5-8.5-1-1-5-5-4-4L141 128m59 57-8.5-8.5-1-1-5-5-4-4L143 128m57 55-8.5-8.5-1-1-5-5-4-4L145 128m55 53-8.5-8.5-1-1-5-5-4-4L147 128m53 51-8.5-8.5-1-1-5-5-4-4L149 128m51 49-8.5-8.5-1-1-5-5-4-4L151 128m49 47-8.5-8.5-1-1-5-5-4-4L153 128m47 45-8.5-8.5-1-1-5-5-4-4L155 128m45 43-8.5-8.5-1-1-5-5-4-4L157 128m43 41-8.5-8.5-1-1-5-5-4-4L159 128m41 39-8.5-8.5-1-1-5-5-4-4L161 128m39 37-8.5-8.5-1-1-5-5-4-4L163 128m37 35-8.5-8.5-1-1-5-5-4-4L165 128m35 33-8.5-8.5-1-1-5-5-4-4L167 128m33 31-8.5-8.5-1-1-5-5-4-4L169 128m31 29-8.5-8.5-1-1-5-5-4-4L171 128m29 131-8.5-8.5-1-1-5-5-4-4L164 223m35 37-9.5-9.5-1-1-5-5-4-4L162 223m35 37-9.5-9.5-1-1-5-5-4-4L160 223m35 37-9.5-9.5-1-1-5-5-4-4L158 223m35 37-9.5-9.5-1-1-5-5-4-4L156 223m35 37-9.5-9.5-1-1-5-5-4-4L154 223m35 37-9.5-9.5-1-1-5-5-4-4L152 223m35 37-9.5-9.5-1-1-5-5-4-4L150 223m49-35-9.5-9.5-1-1-5-5-4-4L139 128m58 60-9.5-9.5-1-1-5-5-4-4L137 128m58 60-9.5-9.5-1-1-5-5-4-4L135 128m58 60-9.5-9.5-1-1-5-5-4-4L133 128m58 60-9.5-9.5-1-1-5-5-4-4L131 128m58 60-9.5-9.5-1-1-5-5-4-4L129 128m58 60-9.5-9.5-1-1-5-5-4-4L127 128m58 60-9.5-9.5-1-1-5-5-4-4L125 128m58 60-9.5-9.5-1-1-5-5-4-4L123 128m58 60-9.5-9.5-1-1-5-5-4-4L121 128m58 60-9.5-9.5-1-1-5-5-4-4L119 128m58 60-9.5-9.5-1-1-5-5-4-4L117 128m58 60-9.5-9.5-1-1-5-5-4-4L115 128m58 60-9.5-9.5-1-1-5-5-4-4L113 128m58 60-9.5-9.5-1-1-5-5-4-4L111 128m58 60-9.5-9.5-1-1-5-5-27-27L109 128m58 60-9.5-9.5-1-1-5-5-4-4L107 128m58 60-9.5-9.5-1-1-5-5-4-4L105 128m58 60-9.5-9.5-1-1-5-5-4-4L103 128m58 60-9.5-9.5-1-1-5-5-4-4L101 128m58 60-9.5-9.5-1-1-5-5-4-4L99 128m58 60-9.5-9.5-1-1-5-5-4-4L97 128m56 60-9.5-9.5-1-1-5-5-4-4L93 128m58 60-9.5-9.5-1-1-5-5-4-4L91 128m58 60-9.5-9.5-1-1-5-5-4-4L89 128m58 60-9.5-9.5-1-1-5-5-4-4L87 128m58 60-9.5-9.5-1-1-5-5-4-4L85 128m70 60-9.5-9.5-1-1-5-5-4-4L95 128m48 60-9.5-9.5-1-1-5-5-4-4L83 128m58 60-9.5-9.5-1-1-5-5-4-4L81 128m58 60-9.5-9.5-1-1-5-5-4-4L79 128m58 60-9.5-9.5-1-1-5-5-4-4L77 128m58 60-9.5-9.5-1-1-5-5-4-4L75 128m58 60-9.5-9.5-1-1-5-5-4-4L73 128m58 60-9.5-9.5-1-1-5-5-4-4L71 128m58 60-9.5-9.5-1-1-5-5-4-4L69 128m58 60-9.5-9.5-1-1-5-5-4-4L67 128m58 60-9.5-9.5-1-1-5-5-4-4L65 128m58 60-9.5-9.5-1-1-5-5-4-4L63 128m58 60-9.5-9.5-1-1-5-5-4-4L61 128m54 60-9.5-9.5-1-1-5-5-4-4-38-38M113 188l-9.5-9.5-1-1-5-5-4-4L58 133m53 55-9.5-9.5-1-1-5-5-4-4L58 135m53.5 57.5-14-14-1-1-5-5-4-4-28-28m52 54-16-16-1-1-5-5-4-4-26-26m52 54-18-18-1-1-5-5-4-4L60 145m52 54-20.5-20.5-1-1-5-5-4-4L60 147m52 54-22.5-22.5-1-1-5-5-4-4L60 149m52.5 54.5-25-25-1-1-5-5-4-4L60 151m52.5 54.5-27-27-1-1-5-5-4-4-15-15M113 208l-29.5-29.5-1-1-5-5-4-4-13-13M113 210l-31.5-31.5-1-1-5-5-4-4-11-11M113 212l-33.5-33.5-1-1-5-5-4-4L61 160m52 54-33.5-33.5-1-1-5-5-4-4L61 162m52.5 54.5-32-32-1-1-5-5-4-4-10-10m52 54-34-34-1-1-5-5-4-4-8-8M114 221l-33.5-33.5-1-1-5-5-4-4L62 169m52 54-29.5-29.5-1-1-5-5-4-4L62 171m52 54-31.5-31.5-1-1-5-5-4-4L62 173m52.5 54.5-34-34-1-1-5-5-4-4-8-8m52 54-34-34-1-1-5-5-4-4-8-8M115 232l-32.5-32.5-1-1-5-5-4-4L63 180m52 54-34.5-34.5-1-1-5-5-4-4L63 182m52 54-34.5-34.5-1-1-5-5-4-4-7-7m52 54-34-34-1-1-5-5-4-4-8-8m52 54-30-30-1-1-5-5-4-4L64 189m52 54-32.5-32.5-1-1-5-5-4-4L64 191m52 54-34.5-34.5-1-1-5-5-4-4L64 193m52 54-34.5-34.5-1-1-5-5-4-4-7-7m52 54-33-33-1-1-5-5-4-4-9-9M117 252l-35.5-35.5-1-1-5-5L71 206l-6.5-6.5M117 254l-35.5-35.5-1-1-5-5-4-4L65 202m54-14-9.5-9.5-1-1-5-5-4-4L59 128m58 60-9.5-9.5-1-1-5-5-4-4L57 128m54.5 62.5-12-12-1-1-5-5-4-4L59 138m126 122-9.5-9.5-1-1-5-5-4-4-15-15M183 260l-9.5-9.5-1-1-5-5-4-4-13-13M181 260l-9.5-9.5-1-1-5-5-3.5-3.5-11.5-11.5M179 260l-9.5-9.5-1-1-5-5-4-4-8.5-8.5m26 28-9.5-9.5-1-1-5-5-4-4-6.5-6.5m24 26-9.5-9.5-1-1-5-5-4-4-4.5-4.5m22 24-9.5-9.5-1-1-5-5-4-4-2-2M171 260l-9.5-9.5-1-1-5-5-4-4M169 260l-9.5-9.5-1-1-5-5-1.5-1.5m15 17-9.5-9.5-1-1-4.5-4.5m13 15-9.5-9.5-1-1-2.5-2.5m11 13-9.5-9.5-1-1M161 260l-8.5-8.5m6.5 8.5-6.5-6.5m4.5 6.5-4-4m2 4-2-2m47-1-8.5-8.5-1-1-5-5-4-4L166 223m34 32-8.5-8.5-1-1-5-5-4-4L168 223m32 30-8.5-8.5-1-1-5-5-4-4L170 223m30 28-8.5-8.5-1-1-5-5-4-4-9.5-9.5m28 26-8.5-8.5-1-1-5-5-4-4-7.5-7.5m26 24-8.5-8.5-1-1-5-5-4-4-5.5-5.5m24 22-8.5-8.5-1-1-5-5-4-4-3.5-3.5m22 20-8.5-8.5-1-1-5-5-4-4-1.5-1.5m20 18-8.5-8.5-1-1-5-5-3.5-3.5m18 16-8.5-8.5-1-1-6.5-6.5m16 14-8.5-8.5-1-1-4.5-4.5m14 12-8.5-8.5-3.5-3.5m12 10-8.5-8.5-1.5-1.5m10 8-8-8m8 6-6-6m6 4-4-4m4 2-2-2m2 128-8.5-8.5-1-1-5-5-4-4L144 295m55 57-7.5-7.5-1-1-5-5-4-4L142 295m53.5 55.5-6-6-1-1-5-5-4-4L140 295m-4 18-6.5-6.5-1-1-5-5-4-4L69 246m65 67-7-7-1-1-5-5-4-4-48-48m63 65-7-7-1-1-5-5-4-4-46-46m61 63-7-7-1-1-5-5-4-4-43.5-43.5M117 256l-33.5-33.5-1-1-5-5-4-4L65 204m52 54-29.5-29.5-1-1-5-5-4-4L65 206m52 54-31.5-31.5-1-1-5-5-4-4-10-10m52 54-34-34-1-1-5-5-4-4-8-8M118 265l-34.5-34.5-1-1-5-5-4-4L66 213m52 54-32.5-32.5-1-1-5-5-4-4L66 215m52 54-34.5-34.5-1-1-5-5-4-4-7-7m52 54-35-35-1-1-5-5-4-4-7-7M119 274l-33.5-33.5-1-1-5-5-5-5-8-8M119 276l-29.5-29.5-1-1-5-5-4-4L67 224m52 54-31.5-31.5-1-1-5-5-4-4L67 226m52 54-33.5-33.5-1-1-5-5-4-4L67 228m52.5 54.5-34-34-1-1-5-5-4-4-8-8m52 54-32-32-1-1-5-5-4-4-10-10M120 287l-34.5-34.5-1-1-5-5-4-4-8-8M120 289l-34.5-34.5-1-1-5-5-4-4L68 237m52 54-31.5-31.5-1-1-5-5-4-4L68 239m52.5 54.5-34-34-1-1-5-5-4-4-8-8M120 295l-33.5-33.5-1-1-5-5-4-4-8-8M128 313l-7-7-1-1-5-5-4-4-41.5-41.5M126 313l-7-7-1-1-5-5-4-4-39-39m54 56-7-7-1-1-5-5-4-4-37-37m52 54-7-7-1-1-5-5-1-1-38-38m52.5 54.5L115 308l-1-1-5-5-1-1-37.5-37.5m52 54L115 310l-1-1-5-5-1-1-37.5-37.5M123 320l-8-8-1-1-5-5-1-1-37.5-37.5M123 322l-7-7-1-1-5-5-1-1-38-38m52 54-7-7-1-1-5-5-1-1-38-38m52 54-7-7-1-1-5-5-1-1-37.5-37.5m52 54L116 321l-1-1-5-5-1-1-37.5-37.5M124 331l-7-7-1-1-5-5-1-1-38.5-38.5M124 333l-7-7-1-1-5-5-1-1-38-38m52 54-7-7-1-1-5-5-1-1-38-38m52 54-7-7-1-1-5-5-1-1-37.5-37.5M125 340l-7-7-1-1-5-5-1-1-38.5-38.5M125 342l-7-7-1-1-5-5-1-1-38-38m52 54-7-7-1-1-5-5-1-1-38-38m52 54-7-7-1-1-5-5-1-1-38-38m52 54-7-7-1-1-5-5-1-1-37.5-37.5m52 54L118 343l-1-1-5-5-1-1-37.5-37.5M126 353l-8-8-1-1-5-5-1-1-37.5-37.5M126 355l-8-8-1-1-5-5-1-1-37-37m52 54-7-7-1-1-5-5-1-1-38-38m52.5 54.5L119 352l-1-1-5-5-1-1-38-38m52.5 54.5L119 354l-1-1-5-5-1-1-37.5-37.5m52 54L119 356l-1-1-5-5-1-1-37.5-37.5M127 366l-7-7-1-1-5-5-1-1-38-38m52 54-7-7-1-1-5-5-1-1-38-38m130.5 132.5L120 363l-1-1-5-5-1-1-37.5-37.5m128 130L120 365l-1-1-5-5-1-1-37.5-37.5M202 449l-81-81-1-1-5-5-1-1-38.5-38.5m125 127L121 370l-1-1-5-5-1-1-38-38m123 125-78-78-1-1-5-5-1-1-38-38m120 122-75-75-1-1-5-5-1-1-38-38m117 119-71-71-1-1-5-5-1-1-38.5-38.5m114 116L122 379l-1-1-5-5-1-1-38.5-38.5m111 113-65-65-1-1-5-5-1-1-39-39M185 446l-62.5-62.5-1-1-5-5-1-1L77 338m105 107-59.5-59.5-1-1-5-5-1-1L77 340m102 104-56.5-56.5-1-1-5-5-1-1L77 342m99.5 101.5-53-53-1-1-5-5-1-1-39-39M174 443l-50.5-50.5-1-1-5-5-1-1L78 347m93 95-47.5-47.5-1-1-5-5-1-1L78 349m90.5 92.5-45-45-1-1-5-5-1-1L78 351m87.5 89.5-41-41-1-1-5-5-1.5-1.5-38.5-38.5M163 440l-38.5-38.5-1-1-5-5-1-1-39-39M160 439l-35.5-35.5-1-1-5-5-1-1L79 358m78.5 80.5-33-33-1-1-5-5-1-1L79 360m75.5 77.5-29-29-1-1-5-5-1-1L79 362m73 75-26.5-26.5-1-1-5-5-1-1-39-39M149 436l-23.5-23.5-1-1-5-5-1-1-39-39M146 435l-20.5-20.5-1-1-5-5-1-1-39-39m64 66-17-17-1-1-5-5-1-1L80 371m60.5 62.5-14-14-1-1-5-5-1-1L80 373m58 60-11.5-11.5-1-1-5-5-1-1L80 375m55 57-8.5-8.5-1-1-5-5-1-1-39-39M132 431l-5.5-5.5-5-5-1-1-40-40m49 51-3-3-5-5-1-1L81 382m46 48-5.5-5.5-1-1L81 384m43 45-2.5-2.5-1-1L81 386m40 42-.5-.5-39-39m37 39-37-37m34 36L82 393m31 33-31-31m28 30-28-28m25.5 27.5-25-25M105 424l-22.5-22.5M102 423l-19-19m16 18-16-16m13 15-13-13m10.5 12.5-10-10M91 420l-7.5-7.5M88 419l-4-4m1.5 3.5L84 417m109-67-5.5-5.5-1-1-5-5-4-4L158 315m32 34-4.5-4.5-1-1-5-5-4-4L158 317m29.5 31.5-5-5-5-5-4-4-15-15M185 348l-4.5-4.5-5-5-4-4-13-13M182 347l-3.5-3.5-5-5-4-4L159 324m-3-11-4.5-4.5-5-5-4-4-4.5-4.5m16 18-4.5-4.5-5-5-4-4-4.5-4.5m16 18-4.5-4.5-5-5-4-4-4.5-4.5m16 18-4.5-4.5-5-5-4-4-4.5-4.5m16 18-4.5-4.5-5-5-4-4-4.5-4.5m16 18-4.5-4.5-5-5-4-4-4.5-4.5m16 18-4.5-4.5-5-5-4-4-4.5-4.5m16 18-4.5-4.5-5-5-4-4-4.5-4.5m16 18-4.5-4.5-5-5-4-4-4.5-4.5m16 18-4.5-4.5-5-5-4-4-4.5-4.5m59 51-2.5-2.5-5-5-4-4-8.5-8.5m17.5 19.5-7-7-4-4-6.5-6.5m12 16-5.5-5.5-4-4-2-2m9 11-5-5-4-4m6 8L160 337m3 5-3-3m1 3-1-1m13.5 3.5-6-6-4-4-4-4M200 349l-8.5-8.5-1-1-5-5-4-4L146 295m54 52-8.5-8.5-1-1-5-5-4-4L148 295m52 50-8.5-8.5-1-1-5-5-4-4L150 295m50 48-8.5-8.5-1-1-5-5-4-4L152 295m48 46-8.5-8.5-1-1-5-5-4-4L154 295m46 44-8.5-8.5-1-1-5-5-4-4L156 295m44 42-8.5-8.5-1-1-5-5-4-4L158 295m42 40-8.5-8.5-1-1-5-5-4-4L160 295m40 38-8.5-8.5-1-1-5-5-4-4L162 295m38 36-8.5-8.5-1-1-5-5-4-4L164 295m36 34-8.5-8.5-1-1-5-5-4-4L166 295m34 32-8.5-8.5-1-1-5-5-4-4L168 295m32 30-8.5-8.5-1-1-5-5-4-4L170 295m30 28-8.5-8.5-1-1-5-5-4-4-9.5-9.5m28 26-8.5-8.5-1-1-5-5-4-4-7.5-7.5m26 24-8.5-8.5-1-1-5-5-4-4-5.5-5.5m24 22-8.5-8.5-1-1-5-5-4-4-3.5-3.5m22 16-8.5-8.5-1-1-6.5-6.5m16 14-8.5-8.5-1-1-4.5-4.5m14 12-8.5-8.5-3.5-3.5m12 10-8.5-8.5-1.5-1.5m10 8-8-8m8 6-6-6m6 4-4-4m4 2-2-2m2 20-8.5-8.5-1-1-5-5-4-4-1.5-1.5m20 18-8.5-8.5-1-1-8.5-8.5m37.5 149.5-8-8-1-1-5-5-4-4-52-52M218 445l-9-9-1-1-5-5-4-4-52-52m69 71-8-8-1-1-5-5-4-4-54-54m70.5 72.5L206 437l-1-1-5-5-4-4-54.5-54.5M213 446l-8-8-1-1-5-5-4-4-56-56m72.5 74.5L203 438l-1-1-5-5-4-4-57-57m74 76-8-8-1-1-5-5-4-4-59-59m75.5 77.5L200 439l-1-1-5-5-4-4-59.5-59.5M207 448l-8-8-1-1-5-5-4-4-62-62m98-216-4-4-1-1-5-5-5-5-9-9m26 24-6-6-1-1-5-5-5-5-7-7m26 24-8-8-1-1-5-5-5-5-5-5m26 24-10-10-1-1-5-5-5-5-3-3m26 24-12-12-1-1-5-5-5-5-1-1m26 24-14-14-1-1-5-5-3.5-3.5-.5-.5m26 24-4-4-1-1-5-5-5-5-9-9m26 24-6-6-1-1-5-5-5-5-7-7m26 24-8-8-1-1-5-5-5-5-5-5m26 24-10-10-1-1-5-5-5-5-3-3m26 24-12-12-1-1-5-5-5-5-1-1m26 24-14-14-1-1-5-5-3.5-3.5-.5-.5m70 24-8-8-1-1-5-5-5-5-5-5m-20 24-14-14-1-1-5-5-3.5-3.5-.5-.5m26 24-4-4-1-1-5-5-5-5-9-9m26 24-6-6-1-1-5-5-5-5-7-7m26 24-8-8-1-1-5-5-5-5-5-5m26 24-10-10-1-1-5-5-5-5-3-3m26 24-12-12-1-1-5-5-5-5-1-1m26 24-14-14-1-1-5-5-3.5-3.5-.5-.5m26 24-4-4-1-1-5-5-5-5-9-9m26 24-6-6-1-1-5-5-5-5-7-7m26 24-8-8-1-1-5-5-5-5-5-5m26 24-10-10-1-1-5-5-5-5-3-3m26 24-12-12-1-1-5-5-5-5-1-1m26 24-14-14-1-1-5-5-3.5-3.5-.5-.5m26 24-4-4-1-1-5-5-5-5-9-9m26 24-6-6-1-1-5-5-5-5-7-7m26 24-8-8-1-1-5-5-5-5-5-5m26 24-10-10-1-1-5-5-5-5-3-3m26 24-12-12-1-1-5-5-5-5-1-1m26 24-14-14-1-1-5-5-3.5-3.5-.5-.5m26 24-14-14-1-1-5-5-3.5-3.5-.5-.5m28 24-6-6-1-1-5-5-5-5-7-7m28 24-10-10-1-1-5-5-5-5-3-3m26 24-12-12-1-1-5-5-5-5-1-1m26 24-14-14-1-1-5-5-3.5-3.5-.5-.5m26 24-4-4-1-1-5-5-5-5-9-9m26 24-6-6-1-1-5-5-5-5-7-7m26 24-8-8-1-1-5-5-5-5-5-5m26 24-10-10-1-1-5-5-5-5-3-3m6 24-4-4-1-1-5-5-5-5-9-9m44 24-12-12-1-1-5-5-5-5-1-1m26 24-14-14-1-1-5-5-3.5-3.5-.5-.5m51 45-35-35-1-1-5-5-3.5-3.5-.5-.5m45 43-35-35-1-1-5-5-.5-.5-1.5-1.5m43.5 41.5L303 134l-1-1-3-3-1-1-1-1m41.5 39.5L303 132l-1-1-3-3m39.5 37.5L303 130l-2-2m38 36-36-36m36 34-34-34m34 32-32-32m32.5 30.5L309 128m30.5 28.5L311 128m28.5 26.5L313 128m27 25-25-25m25 23-23-23m23 21-21-21m21.5 19.5L321 128m19.5 17.5L323 128m17.5 15.5L325 128m16 14-14-14m14 12-12-12m2 0 10 10m-8-10 8.5 8.5M335 128l6.5 6.5M337 128l4.5 4.5M339 128l3 3m-1-3 1 1m-27 23-14-14-1-1-5-5-3.5-3.5-.5-.5m47 47-12-12-1-1-5-5-3.5-3.5-.5-.5m21.5 23.5L326 165l-1-1-5-5-3.5-3.5-.5-.5m21.5 23.5L326 167l-1-1-5-5-3.5-3.5-.5-.5m21.5 23.5L326 169l-1-1-5-5-3.5-3.5-1.5-1.5m22 24-11-11-1-1-5-5-3.5-3.5-1.5-1.5m22 24-11-11-1-1-5-5-4-4-1-1m22 24-11-11-1-1-5-5-3.5-3.5-1.5-1.5m21.5 23.5L326 177l-1-1-5-5-3.5-3.5-1.5-1.5m21.5 23.5-11-11-1-1-5-5-3.5-3.5-1-1m21.5 23.5-11-11-1-1-5-5-3.5-3.5-2-2m22 24-11-11-1-1-5-5-3.5-3.5-1.5-1.5m22 24-11.5-11.5-1-1-5-5-3.5-3.5-1-1m22 24-12-12-1-1-5-5-3.5-3.5-.5-.5m21.5 23.5L324 187l-1-1-5-5-3.5-3.5-.5-.5m21.5 23.5L324 189l-1-1-5-5-3.5-3.5-.5-.5m21.5 23.5L324 191l-1-1-5-5-3.5-3.5-1.5-1.5m22 24-11-11-1-1-5-5-3.5-3.5-1.5-1.5m22 24-11-11-1-1-5-5-3.5-3.5-1.5-1.5m22 24-11-11-1-1-5-5-4.5-4.5-.5-.5m21.5 23.5L324 199l-1-1-5-5-4.5-4.5-.5-.5m21.5 23.5L324 201l-1-1-5-5-3.5-3.5-1.5-1.5m21.5 23.5L324 203l-1-1-5-5-3.5-3.5-2.5-2.5m22 24-10-10-1-1-5-5-3.5-3.5-2.5-2.5m22 24-10-10-1-1-5-5-3.5-3.5-2.5-2.5m22 24-10-10-1-1-5-5-3.5-3.5-2.5-2.5m22 24-10-10-1-1-5-5-3.5-3.5-2.5-2.5m21.5 23.5-9.499-9.5-1-1-5-5-3.001-3-3-3m21.5 23.5L324 215l-1-1-5-5-3.5-3.5-3.5-3.5m22.5 24.5L324 217l-1-1-5-5-3.5-3.5-3.5-3.5m22 24-9-9-1-1-5-5-3.5-3.5-3.5-3.5m22 24-9-9-1-1-5-5-3.5-3.5-3.5-3.5m22 24-9-9-1-1-5-5-3.5-3.5-3.5-3.5m21.5 23.5L324 225l-1-1-5-5-3.5-3.5-3.5-3.5m21.5 23.5L324 227l-1-1-5-5-3.5-3.5-4.5-4.5m22 24-8-8-1-1-5-5-3.5-3.5-4.5-4.5m22 24-8-8-1-1-5-5-3.5-3.5-4.5-4.5m22 24-8-8-1-1-5-5-3.5-3.5-4.5-4.5m22 24-8-8-1-1-5-5-3.5-3.5-4.5-4.5m21.5 23.5L324 237l-1-1-5-5-3.5-3.5-5.5-5.5m22.5 24.5L324 239l-1-1-5-5-3.5-3.5-5.5-5.5m22.5 24.5L324 241l-1-1-5-5-3.5-3.5-5.5-5.5m22 24-7-7-1-1-5-5-3.5-3.5-5.5-5.5m22 24-7-7-1-1-5-5-3.5-3.5-5.5-5.5m22 24-7-7-1-1-5-5-3.5-3.5-5.5-5.5m21.5 23.5L324 249l-1-1-5-5-3.5-3.5-5.5-5.5m21.5 23.5L319 246l-1-1-5-5-3.5-3.5-1.5-1.5m22.5 24.5L319 248l-1-1-5-5-3.5-3.5-1.5-1.5m22 24-11-11-1-1-5-5-3.5-3.5-1.5-1.5m22 24-11-11-1-1-5-5-3.5-3.5-1.5-1.5m22 24-11-11-1-1-5-5-3.5-3.5-1.5-1.5m21.5 23.5L319 256l-1-1-5-5-3.5-3.5-1.5-1.5m21.5 23.5L319 258l-1-1-5-5-3.5-3.5-1.5-1.5m21.5 23.5L319 260l-1-1-5-5-3.5-3.5-2.5-2.5m22 24-10-10-1-1-5-5-3.5-3.5-2.5-2.5m22 24-10-10-1-1-5-5-3.5-3.5-2.5-2.5m22 24-10-10-1-1-5-5-3.5-3.5-2.5-2.5m21.5 23.5L319 268l-1-1-5-5-3.5-3.5-2.5-2.5m21.5 23.5L319 270l-1-1-5-5-3.5-3.5-2.5-2.5m21.5 23.5L319 272l-1-1-5-5-3.5-3.5-2.5-2.5m21 23-9-9-1-1-5-5-3.5-3.5-3.5-3.5m22 24-9-9-1-1-5-5-3.5-3.5-3.5-3.5m22 24-9-9-1-1-5-5-3.5-3.5-3.5-3.5m21.5 23.5L319 280l-1-1-5-5-3.5-3.5-3.5-3.5m21.5 23.5L319 282l-1-1-5-5-3.5-3.5-3.5-3.5m21.5 23.5L319 284l-1-1-5-5-3.5-3.5-3.5-3.5m21 23-11-11-1-1-5-5-3.5-3.5-1.5-1.5m22 24-11-11-1-1-5-5-3.5-3.5-1.5-1.5m22 24-11-11-1-1-5-5-3.5-3.5-1.5-1.5m21.5 23.5L316 289l-1-1-5-5-3.5-3.5-1.5-1.5m21.5 23.5L316 291l-1-1-5-5-3.5-3.5-1.5-1.5m21.5 23.5L316 293l-1-1-5-5-3.5-3.5-2.5-2.5m22 24-11-11-1-1-5-5-3.5-3.5-1.5-1.5m22 24-11-11-1-1-5-5-3.5-3.5-1.5-1.5m22 24-11-11-1-1-5-5-3.5-3.5-1.5-1.5m21.5 23.5L315 300l-1-1-5-5-3.5-3.5-1.5-1.5m21.5 23.5L315 302l-1-1-5-5-4.5-4.5-.5-.5m21.5 23.5L314 303l-1-1-5-5-3.5-3.5-1.5-1.5m22 24-11-11-1-1-5-5-3.5-3.5-1.5-1.5m22 24-11-11-1-1-5-5-3.5-3.5-1.5-1.5m22 24-11-11-1-1-5-5-3.5-3.5-1.5-1.5m21.5 23.5L314 311l-1-1-5-5-3.5-3.5-1.5-1.5m21.5 23.5L314 313l-1-1-5-5-3.5-3.5-1.5-1.5m21.5 23.5L313 314l-1-1-5-5-3.5-3.5-1.5-1.5m22 24-11-11-1-1-5-5-3.5-3.5-1.5-1.5m22 24-11-11-1-1-5-5-3.5-3.5-1.5-1.5m22 24-11-11-1-1-5-5-3.5-3.5-1.5-1.5m21.5 23.5L312 321l-1-1-5-5-3.5-3.5-.5-.5m21.5 23.5L312 323l-1-1-5-5-3.5-3.5-.5-.5m21.5 23.5L312 325l-1-1-5-5-3.5-3.5-1.5-1.5m22 24-11-11-1-1-5-5-3.5-3.5-1.5-1.5m22 24-11-11-1-1-5-5-3.5-3.5-1.5-1.5m22 24-11-11-1-1-5-5-3.5-3.5-1.5-1.5m21.5 23.5L312 333l-1-1-5-5-3.5-3.5-1.5-1.5m21.5 23.5L312 335l-1-1-5-5-3.5-3.5-1.5-1.5m21.5 23.5L312 337l-1-1-5-5-3.5-3.5-1.5-1.5m21 23-11-11-1-1-5-5-3.5-3.5-1.5-1.5m22 24-11-11-1-1-5-5-3.5-3.5-1.5-1.5m22 24-11-11-1-1-5-5-3.5-3.5-1.5-1.5m21.5 23.5L311 344l-1-1-5-5-3.5-3.5-1.5-1.5m21.5 23.5L311 346l-1-1-5-5-3.5-3.5-1.5-1.5m21.5 23.5L310 347l-1-1-5-5-3.5-3.5-.5-.5m21 23-11-11-1-1-5-5-3.5-3.5-1.5-1.5m22 24-11-11-1-1-5-5-3.5-3.5-1.5-1.5m22 24-11-11-1-1-5-5-3.5-3.5-1.5-1.5m22 24-11-11-1-1-5-5-3.5-3.5-1.5-1.5m21.5 23.5L309 356l-1-1-5-5-3.5-3.5-.5-.5m21.5 23.5L309 358l-1-1-5-5-3.5-3.5-.5-.5m21.5 23.5L309 360l-1-1-5-5-3.5-3.5-1.5-1.5m22 24-11-11-1-1-5-5-3.5-3.5-1.5-1.5m22 24-11-11-1-1-5-5-3.5-3.5-1.5-1.5m22 24-11-11-1-1-5-5-3.5-3.5-1.5-1.5m21.5 23.5L309 368l-1-1-5-5-3.5-3.5-1.5-1.5m21.5 23.5L309 370l-1-1-5-5-3.5-3.5-1.5-1.5m21.5 23.5L308 371l-1-1-5-5-3.5-3.5-1.5-1.5m22 24-11-11-1-1-5-5-3.5-3.5-1.5-1.5m22 24-11-11-1-1-5-5-3.5-3.5-1.5-1.5m22 24-11-11-1-1-5-5-3.5-3.5-1.5-1.5m21.5 23.5L308 379l-1-1-5-5-3.5-3.5-1.5-1.5m21.5 23.5L308 381l-1-1-5-5-3.5-3.5-1.5-1.5m21.5 23.5L308 383l-1-1-5-5-3.5-3.5-2.5-2.5m22 24-10-10-1-1-5-5-3.5-3.5-2.5-2.5m22 24-10-10-1-1-5-5-3.5-3.5-2.5-2.5m22 24-9.5-9.5-1-1-5-5-3.5-3.5-3-3m21.5 23.5-9-9-1-1-5-5-3.5-3.5-3-3m21.5 23.5-9-9-1-1-5-5-3.5-3.5-3-3m21.5 23.5-9-9-1-1-5-5-3.5-3.5-4-4m22 24-8.5-8.5-1-1-5-5-3.5-3.5-4-4m22 24-8.5-8.5-1-1-5-5-3.5-3.5-4-4m22 24-8.5-8.5-1-1-5-5-3.5-3.5-4-4m21.5 23.5-8-8-1-1-5-5-3.5-3.5-4-4m21.5 23.5-8-8-1-1-5-5-3.5-3.5-4-4m21.5 23.5-8-8-1-1-5-5-3.5-3.5-5-5m22 24-7.5-7.5-1-1-5-5-3.5-3.5-5-5m21 23-6-6-1-1-5-5-4-4-5-5m19.5 21.5-4-4-1-1-5-5-4-4-5.5-5.5m18 20-2.5-2.5-1-1-5-5-4-4-6.5-6.5m17.5 19.5-3-3-1-1-5-5-4-4-6.5-6.5m18 20-3.5-3.5-1-1-5-5-4-4-5.5-5.5m17 19-3.5-3.5-1-1-5-5-4-4-5.5-5.5m17.5 19.5L302 417l-1-1-5-5-4-4-6-6m18 20-4-4-1-1-5-5-4-4-5-5m17.5 19.5L299 418l-1-1-5-5-4-4-6-6m18 20-4-4-1-1-5-5-4-4-5-5m17.5 19.5-4-4-1-1-5-5-4-4-5.5-5.5m18 20-4.5-4.5-1-1-5-5-4-4-4.5-4.5m17 19-4.5-4.5-1-1-5-5-3.5-3.5-5-5m17.5 19.5-5-5-1-1-5-5-4-4-4.5-4.5m18 20-5.5-5.5-1-1-5-5-4-4-3.5-3.5m17.5 19.5-6-6-1-1-5-5-4-4-3.5-3.5m18 20-6.5-6.5-1-1-5-5-4-4-2.5-2.5m17.5 19.5-7-7-1-1-5-5-4-4-2.5-2.5m18 20-7-7-1-1-5-5-4-4-2-2m17.5 19.5L278 419l-1-1-5-5-4-4-2-2m17.5 19.5L276 419l-1-1-5-5-4-4-1-1m17 19-8-8-1-1-5-5-4-4-1-1m17.5 19.5-8-8-1-1-5-5-4-4-1.5-1.5m18 20-8.5-8.5-1-1-5-5-4-4-.5-.5m17.5 19.5-8-8-1-1-5-5-4.5-4.5-1-1m18 20-8.5-8.5-1-1-5-5-4-4-.5-.5m17.5 19.5-8-8-1-1-5-5-4-4-1.5-1.5m17.5 19.5-8-8-1-1-5-5-4-4-.5-.5m17 19-7.5-7.5-1-1-5-5-4-4-1.5-1.5m17.5 19.5-8-8-1-1-5-5-4-4-1.5-1.5m18 20-7.5-7.5-1-1-5-5-4-4-1.5-1.5m17.5 19.5-8-8-1-1-5-5-4-4-1.5-1.5m18 20-8-8-1-1-5-5-4-4-1-1m17.5 19.5L256 425l-1-1-5-5-4-4-2-2m17.5 19.5L254 425l-1-1-5-5-4-4-1-1m17 19-7-7-1-1-5-5-4-4-2-2m17.5 19.5L251 426l-1-1-5-5-4-4-2-2m18 20-7-7-1-1-5-5-4-4-2-2m17.5 19.5L248 427l-1-1-5-5-4-4-2-2m18 20-8-8-1-1-5-5-4-4-1-1m17.5 19.5L245 428l-1-1-5-5-4-4-2-2m18 20-8-8-1-1-5-5-4-4-1-1m17 19-8-8-1-1-5-5-4-4-1-1m17.5 19.5-8-8-1-1-5-5-4-4-.5-.5m17 19-8.5-8.5-1-1-5-5-4-4-.5-.5m17.5 19.5-8-8-1-1-5-5-4-4-1.5-1.5m18 20-8.5-8.5-1-1-5-5-4-4-.5-.5m17.5 19.5-8-8-1-1-5-5-4-4-1.5-1.5m18 20-8.5-8.5-1-1-5-5-4-4-.5-.5m17 19-8.5-8.5-1-1-5-5-4.5-4.5m17.5 19.5-8-8-1-1-5-5-4-4-.5-.5m17 19-8.5-8.5-1-1-5-5-4-4-.5-.5m17.5 19.5-9-9-1-1-5-5-4.5-4.5m18 20-8.5-8.5-1-1-5-5-4-4-.5-.5m17.5 19.5-9-9-1-1-5-5-4.5-4.5m18 20-9.5-9.5-1-1-5-5-3.5-3.5m17 19-6.5-6.5-1-1-5-5-4-4-2.5-2.5m17.5 19.5-7-7-1-1-5-5-4-4-1.5-1.5m17 19-7.5-7.5-1-1-5-5-4-4-1.5-1.5m17.5 19.5-7-7-1-1-5-5-4-4-2.5-2.5m18 20-7.5-7.5-1-1-5-5-4-4-1.5-1.5m111-273-14-14-1-1-5-5-3.5-3.5-.5-.5"/>
  <path stroke="#F23526" stroke-width="5" d="M84.5 104V50H103v18h16V50h18.5v54H119V86h-16v18H84.5Z"/>
  <path stroke="#F16524" stroke-width="5" d="M195 50h-50v18h16v36h18V68h16V50Zm27 0h-19.5v54h18V77L233 96.5 245.5 77l-.117 27H264V50h-19l-12 19-11-19Z"/>
  <path stroke="#F23526" stroke-width="5" d="M290.5 50h-18l-.125 54H316V86h-25.5V50Z"/>
</svg>
