<svg xmlns="http://www.w3.org/2000/svg" width="400" height="500" fill="none" viewBox="0 0 400 500">
  <g class="Frame 20">
    <g class="Group 35">
      <path stroke="#F9AB3B" d="m194 181 17-17" class="Vector 1952"/>
      <path stroke="#F9AB3B" d="m194 183 19-19" class="Vector 1953"/>
      <path stroke="#F9AB3B" d="m194 167 3-3m-3 5 5-5m-5 7 7-7" class="Vector 1947"/>
      <path stroke="#F9AB3B" d="m194 173 9-9" class="Vector 1948"/>
      <path stroke="#F9AB3B" d="m194 175 11-11" class="Vector 1949"/>
      <path stroke="#F9AB3B" d="m194 177 13-13" class="Vector 1950"/>
      <path stroke="#F9AB3B" d="m194 179 15-15" class="Vector 1951"/>
      <path stroke="#F9AB3B" d="m194 185 21-21" class="Vector 1954"/>
      <path stroke="#F9AB3B" d="m194 187 23-23" class="Vector 1955"/>
      <path stroke="#F9AB3B" d="m194 189 25-25" class="Vector 1956"/>
      <path stroke="#F9AB3B" d="m194 191 27-27" class="Vector 1957"/>
      <path stroke="#F9AB3B" d="m194 193 29-29" class="Vector 1958"/>
      <path stroke="#F9AB3B" d="m194 195 31-31" class="Vector 1959"/>
      <path stroke="#F9AB3B" d="m194 197 33-33" class="Vector 1960"/>
      <path stroke="#F9AB3B" d="m194 199 35-35" class="Vector 1961"/>
      <path stroke="#F9AB3B" d="m201 194 30-30" class="Vector 1962"/>
      <path stroke="#F9AB3B" d="m201 196 32-32" class="Vector 1963"/>
      <path stroke="#F9AB3B" d="m201 198 34-34" class="Vector 1964"/>
      <path stroke="#F9AB3B" d="m201 200 36-36m-36 38 38-38" class="Vector 1965"/>
      <path stroke="#F9AB3B" d="M200.5 204.5 241 164" class="Vector 1966"/>
      <path stroke="#F9AB3B" d="M201.5 205.5 243 164" class="Vector 1967"/>
      <path stroke="#F9AB3B" d="m202 207 43-43m-42 44 44-44" class="Vector 1968"/>
      <path stroke="#F9AB3B" d="m200.5 212.5 2-2M249 164l-45.5 45.5" class="Vector 1969"/>
      <path stroke="#F9AB3B" d="m200.5 214.5 2.5-2.5m48-48-46.5 46.5M253 164l-48 48m-4.5 4.5 3.5-3.5m-3.5 5.5 4-4M255 164l-49 49m51-49-50 50m-7 7 5.5-5.5" class="Vector 1970"/>
      <path stroke="#F9AB3B" d="m200 223 6-6m53-53-51.5 51.5M261 164l-52.5 52.5M200 225l6.5-6.5M200 227l7.5-7.5M263 164l-54 54m56-54-55 55m-10 10 8-8m-8 10 8.5-8.5M267 164l-56.5 56.5M269 164l-57.5 57.5M199 234l10.5-10.5M199 236l11-11m61-61-59 59m61-59-60 60m-14 14 11.5-11.5M199 240l12-12m64-64-61.5 61.5" class="Vector 1971"/>
      <path stroke="#F9AB3B" d="m199 242 13-13m65-65-62.5 62.5M279 164l-63.664 63.664M199 244l13.5-13.5" class="Vector 1972"/>
      <path stroke="#F9AB3B" d="m199 246 14-14m68-68-65 65" class="Vector 1973"/>
      <path stroke="#F9AB3B" d="m283 164-66 66m-19 19 15.5-15.5" class="Vector 1974"/>
      <path stroke="#F9AB3B" d="m198 251 16-16m71-71-67.5 67.5" class="Vector 1975"/>
      <path stroke="#F9AB3B" d="m287 164-68.769 68.769M198 253l16.5-16.5" class="Vector 1976"/>
      <path stroke="#F9AB3B" d="m198 255 17-17m74-74-70 70" class="Vector 1977"/>
      <path stroke="#F9AB3B" d="m291 164-71.138 71.138M198 257l17.5-17.5" class="Vector 1978"/>
      <path stroke="#F9AB3B" d="m198 259 17.746-17.746M293 164l-72.406 72.406" class="Vector 1979"/>
      <path stroke="#F9AB3B" d="m295 164-73.5 73.5M198 261l18.131-18.131" class="Vector 1980"/>
      <path stroke="#F9AB3B" d="m198 263 18.576-18.576M297 164l-74.773 74.773" class="Vector 1981"/>
      <path stroke="#F9AB3B" d="m299 164-76 76m-26 26 5.5-5.5m14.411-14.411L203.5 259.5" class="Vector 1982"/>
      <path stroke="#F9AB3B" d="m301 164-77.5 77.5M197 268l6-6m14.405-14.405L204 261" class="Vector 1983"/>
      <path stroke="#F9AB3B" d="m197 270 6.5-6.5M303 164l-78.5 78.5m-6.838 6.838L205 262" class="Vector 1984"/>
      <path stroke="#F9AB3B" d="m305 164-80 80m-28 28 7-7m14.077-14.077L205.5 263.5" class="Vector 1985"/>
      <path stroke="#F9AB3B" d="m197 274 7-7m103-103-81 81m-7.677 7.677L206.5 264.5" class="Vector 1986"/>
      <path stroke="#F9AB3B" d="m309 164-82.181 82.181M197 276l7.5-7.5m14.258-14.258L207 266" class="Vector 1987"/>
      <path stroke="#F9AB3B" d="m197 278 8-8m106-106-83.379 83.379M219 256l-11 11" class="Vector 1988"/>
      <path stroke="#F9AB3B" d="m313 164-84.5 84.5m-32 32 8.5-8.5m14.301-14.301L209 268" class="Vector 1989"/>
      <path stroke="#F9AB3B" d="m196.5 282.5 9-9M314 165l-84.808 84.808M209.5 269.5l10-10" class="Vector 1990"/>
      <path stroke="#F9AB3B" d="M313.5 167.5 230 251m-33.5 33.5 9.5-9.5m4.422-4.422 9.268-9.268" class="Vector 1991"/>
      <path stroke="#F9AB3B" d="m313.5 169.5-82.784 82.784M196.5 286.5l10-10m4.65-4.65L220 263" class="Vector 1992"/>
      <path stroke="#F9AB3B" d="m313 172-81.5 81.5m-35 35 10.173-10.173M212 273l8-8" class="Vector 1993"/>
      <path stroke="#F9AB3B" d="m313 174-80.739 80.739M196.5 290.5 207 280m-11 13 11.344-11.344M313 176l-80 80m-20.375 18.375 7.596-7.596M213.5 275.5l6.654-6.654" class="Vector 1994"/>
      <path stroke="#F9AB3B" d="m312.5 178.5-78.737 78.737M196 295l11.744-11.744m6.337-6.337 6.311-6.311" class="Vector 1995"/>
      <path stroke="#F9AB3B" d="m312.5 180.5-78 78M196 297l12-12m-12 14 12.257-12.257M312.5 182.5l-77.278 77.278M214.89 278.11l5.343-5.343M215.5 279.5l4.733-4.733" class="Vector 1996"/>
      <path stroke="#F9AB3B" d="m312 185-75.778 75.778M196 301l12.5-12.5m7.795-7.795 3.903-3.903" class="Vector 1997"/>
      <path stroke="#F9AB3B" d="m195.5 303.5 13-13M312 187l-75.146 75.146M217 282l3-3" class="Vector 1998"/>
      <path stroke="#F9AB3B" d="m312 189-74.5 74.5m-42 42 13.217-13.217m8.958-8.958 2.032-2.032" class="Vector 1999"/>
      <path stroke="#F9AB3B" d="m195 308 14-14m102.5-102.5-73 73" class="Vector 2000"/>
      <path stroke="#F9AB3B" d="m311.5 193.5-72.366 72.366M195 310l14.25-14.25" class="Vector 2001"/>
      <path stroke="#F9AB3B" d="m311 196-71 71m-45 45 14.25-14.25" class="Vector 2002"/>
      <path stroke="#F9AB3B" d="m311 198-70 70m-46 46 14.391-14.391M195 316l14.391-14.391M311 200l-69.5 69.5" class="Vector 2003"/>
      <path stroke="#F9AB3B" d="m310.5 202.5-68.257 68.257M195 318l14.59-14.59" class="Vector 2004"/>
      <path stroke="#F9AB3B" d="m195 320 14.5-14.5m101-101-67.351 67.351" class="Vector 2005"/>
      <path stroke="#F9AB3B" d="m310 207-66.229 66.229M195 322l14.708-14.708" class="Vector 2006"/>
      <path stroke="#F9AB3B" d="m195 324 14.7-14.7M310 209l-65.337 65.337M310 211l-64.5 64.5m-51 51 15.2-15.2" class="Vector 2007"/>
      <path stroke="#F9AB3B" d="m309.5 213.5-63.287 63.287M194.5 328.5l15.221-15.221" class="Vector 2008"/>
      <path stroke="#F9AB3B" d="m194.5 330.5 15.177-15.177M309.5 215.5l-62.683 62.683" class="Vector 2009"/>
      <path stroke="#F9AB3B" d="m194.5 332.5 15.316-15.316M309 218l-61 61" class="Vector 2010"/>
      <path stroke="#F9AB3B" d="m309 220-60.5 60.5m-54 54 15.36-15.36" class="Vector 2011"/>
      <path stroke="#F9AB3B" d="M194.5 336.5 210 321m99-99-60 60" class="Vector 2012"/>
      <path stroke="#F9AB3B" d="M308.5 224.5 250 283m-55.5 55.5L210 323m19.5-19.5.876-.876" class="Vector 2013"/>
      <path stroke="#F9AB3B" d="m308.5 226.5-57.695 57.695M194.5 340.5 210 325m20.5-20.5 1-1" class="Vector 2014"/>
      <path stroke="#F9AB3B" d="m194.5 342.5 15.384-15.384M308.5 228.5l-57 57m-19 19-1.261 1.261" class="Vector 2022"/>
      <path stroke="#F9AB3B" d="M194.5 344.5 210 329m98-98-55.605 55.605m-20.534 20.534 1.795-1.795" class="Vector 2023"/>
      <path stroke="#F9AB3B" d="m194.5 346.5 15.324-15.324M308 233l-54.909 54.909m-20.437 20.437L235 306" class="Vector 2024"/>
      <path stroke="#F9AB3B" d="m308 235-54.157 54.157M307.5 237.5l-52.796 52.796M307 240l-51.5 51.5M307 242l-50.735 50.735M306.5 244.5 257 294m49.5-47.5-48.834 48.834M306.5 248.5l-48 48M306 251l-46.684 46.684M306 253l-46 46m46-44-45.212 45.212M306 257l-44.5 44.5m44-42-43.132 43.132M305 262l-42 42m-26.677 2.677L233.5 309.5m-23.677 23.677L196.5 346.5M210 335l-11 11m35-35 3.323-3.323m1.319.681L235 312m-25.177 25.177-8.59 8.59m8.59-6.59-6.201 6.201M235.5 313.5l4.182-4.182M241 310l-4.677 4.677M210.37 340.63l-4.502 4.502m6.502-4.502-4.142 4.142M237 316l5.321-5.321m1.179.821-5.767 5.767M214.37 340.63l-3.87 3.87m6-4-3.723 3.723M238.5 318.5l6.342-6.342m1.249.751L239 320m-20.63 20.63L215 344m5.5-3.5-3 3m22.323-22.323 7.516-7.516m1.325.675-8.074 8.074m-17.984 17.984-2.747 2.747m4.881-2.881-2.664 2.664m19.25-19.25 8.463-8.463M251 316l-9 9m-15 15-2.669 2.669" class="Vector 2025"/>
      <path stroke="#F9AB3B" d="m194.5 374.5.5-.5m110-110-41.26 41.26M305 266l-40.283 40.283M194.5 376.5l2.695-2.695M194.5 378.5l4.807-4.807M305 268l-39.5 39.5m39-37-38.304 38.304M194.5 380.5l6.807-6.807M194.5 382.5l9-9m101-101L267 310m37.5-35.5-37 37m-73 73 11.109-11.109M194.5 386.5l13-13M304 277l-35.5 35.5M304 279l-34.704 34.704M194.5 388.5l15.288-15.288M194.5 390.5l17.361-17.361M304 281l-34 34m33.5-31.5-32.644 32.644M194.5 392.5l19.556-19.556M194.5 394.5l21.608-21.608M303.5 285.5l-.5.5-31.385 31.385M303 288l-30.638 30.638M194.5 396.5l23.831-23.831M194.5 398.5l25.831-25.831M303 290l-29.891 29.891M303 292l-29.145 29.145M194.5 400.5l27.916-27.916M194.5 402.5l30-30m78-78-27.886 27.886M302.5 296.5l-27.085 27.085M194.5 404.5l32.176-32.176M194.5 406.5l34.278-34.278M302.5 298.5l-26.299 26.299M302 301l-25 25m-82.5 82.5 36.278-36.278M194.5 410.5l67.126-67.126M302 303l-24.145 24.145M301.5 305.5l-23 23m-84 84 69.923-69.923M194.5 414.5l72.77-72.77m34.23-34.23L273 336m28-26-25.5 25.5m-81 81 75.315-75.315M194.5 418.5l77.853-77.853M301 312l-23 23m23-21-21 21m-85.5 85.5 80.312-80.312M194.5 422.5l82.878-82.878M301 316l-18.5 18.5m18-16-16 16m-90 90 85.179-85.179M194.5 426.5l87.817-87.817M300 321l-13 13m13-11-10.5 10.5m-95 95 89.895-89.895M194.5 430.5l92.103-92.103M300 325l-9 9m8.5-6.5L291 336m-96.5 96.5 94.303-94.303M196.5 432.5l94.248-94.248 8.752-8.752m0 2L199 432m3-1 97-97m0 2-94.5 94.5m3-1L299 338m-.5 2.5L210 429m3-1 85.5-85.5m-.5 2.5-82 82m3-1 79-79m-.5 2.5L222 425m2.5-.5 73-73m-.5 2.5-69.5 69.5m3-1L297 356m0 2-64 64m3-1 60.5-60.5m0 2L239 420m3-1 54.5-54.5m-.5 2.5-51 51m2.5-.5L296 369m-.5 2.5-45 45m2.5-.5 42.5-42.5m-.5 2.5-39 39m3-1 36-36m0 2-33 33m3-1 29.5-29.5m0 2-27 27m3-1 24-24m-.5 2.5-21 21m3-1 18-18m0 2-15 15m3-1 11.5-11.5m-.5 2.5-8.5 8.5m3-1 5.5-5.5m0 2-3 3m-63.5-62.5 3-3m-.5 2.5 3-3m-.5 2.5 3.232-3.232M234 341l3.5-3.5M236 341l4.75-4.75m-2.25 4.25 5.601-5.601M240.5 340.5l20-20M243 340l19-19m-16.5 18.5 17.781-17.781M247.5 339.5l17.114-17.114M250 339l16-16m-13.5 15.5 14.915-14.915M254.5 338.5l14.288-14.288M257 338l13.201-13.201M259.5 337.5l12.115-12.115M261.5 337.5 273 326m-9 11 9.855-9.855M266.5 336.5l8.182-8.182M268.5 336.5l7-7M271 336l6-6m-18.5 14.5-23.441 23.441m20.004-22.004L237.5 363.5m12.927-14.927-7.474 7.474M252.5 316.5l-9.82 9.82m11.027-9.027-10.289 10.289m11.765-9.765-11.082 11.082M256.5 318.5l-11.684 11.684m12.933-10.933L245.5 331.5M259 320l-12.708 12.708" class="Vector 2026"/>
      <path stroke="#F9AB3B" d="m195 164-1 1" class="Vector 2027"/>
    </g>
    <g class="Group 39">
      <path stroke="#7274B1" d="m331 299-26-26M173 141l23 23m-21-23 23 23m133.5 133.5L305 271m26.5 24.5L305 269M177 141l23 23m-21-23 23 23m129.5 129.5L305 267m26.5 24.5L305 265M181 141l23 23m-21-23 23 23m126 126-27-27m27 25-27-27M185 141l23 23m-21-23 23 23m122 122-26-26m26 24-26-26M189 141l23 23m-21-23 23 23m118.5 118.5L306 256m26.5 24.5L306 254M193 141l23 23m-21-23 23 23m115 115-27-27m27 25-27-27M197 141l23 23m-21-23 23 23m111.5 111.5L307 249m26.5 24.5L307 247M201 141l23 23m-21-23 23 23m107.5 107.5L307 245m26.5 24.5L307 243M205 141l23 23m-21-23 23 23m104 104-27-27m27 25-27-27m-98-98 23 23m-21-23 23 23m100 100-26-26m26.5 24.5L308 236m-95-95 23 23m-21-23 23 23m96.5 96.5L308 234m26.5 24.5L308 232m-91-91 23 23m-21-23 23 23m93 93-27-27m27 25-26-26m-88-88 23 23m-21-23 23 23m89 89-26-26m26 24-26-26m-84-84 23 23m-21-23 23 23m85.5 85.5L309 223m26.5 24.5L309 221m-80-80 23 23m-21-23 23 23m82 82-27-27m27 25-27-27m-76-76 23 23m-21-23 23 23m78 78-26-26m26 24-26-26m-73-73 23 23m-21-23 23 23m74.5 74.5L310 212m26.5 24.5L310 210m-69-69 23 23m-21-23 23 23m71 71-27-27m27 25-27-27m-65-65 23 23m-21-23 23 23m67 67-26-26m26 24-26-26m-62-62 23 23m-21-23 23 23m63.5 63.5L311 201m26.5 24.5L311 199m-58-58 23 23m-21-23 23 23m60 60-27-27m27 25-27-27m-54-54 23 23m-21-23 23 23m56 56-26-26m26 24-26-26m-51-51 23 23m-21-23 23 23m52.5 52.5L312 190m26.5 24.5L312 188m-47-47 23 23m-21-23 23 23m49 49-27-27m27 25-27-27m-43-43 23 23m-21-23 23 23m45 45-26-26m26 24-26-26m-40-40 23 23m-21-23 23 23m41.5 41.5L313 179m26.5 24.5L313 177m-36-36 23 23m-21-23 23 23m38 38-27-27m27 25-27-27m-32-32 23 23m-21-23 23 23m34 34-27-27m27 25-26-26m-29-29 23 23m-21-23 23 23m30.5 30.5L314 168m26.5 24.5L314 166m-25-25 23 23m-21-23 49.5 49.5m0-2L293 141m2 0 46 46m0-2-44-44m2 0 42 42m.5-1.5L301 141m2 0 38.5 38.5m0-2L305 141m2 0 34.5 34.5m.5-1.5-33-33m2 0 31 31m.5-1.5L313 141m2 0 28 28m0-2-26-26m2 0 24 24m0-2-22-22m2 0 20 20m0-2-18-18m2 0 16.5 16.5m.5-1.5-15-15m2 0 13 13m0-2-11-11m2 0 9 9m.5-1.5L337 141m2 0 5.5 5.5m0-2L341 141m2 0 2 2" class="Vector 2032"/>
      <path stroke="#7274B1" d="m331 301-26-26M171 141l23 23m-25-23 25 25m137 137-27-27m26.5 28.5L304 278M167 141l27 27m-29-27 29 29m136.5 136.5L304 280m26.5 28.5L304 282M163 141l31 31m-33-31 33 33m136 136-26-26m26 28-26-26M159 141l35 35m-37-35 37 37m136 136-27-27m27 29-27-27M155 141l39 39m-41-39 41 41m136 136-27-27m26.5 28.5L303 293M151 141l43 43m-45-43 45 45m135.5 135.5L303 295m26 28-26-26M147 141l47 47m-49-47 49 49m135 135-26-26m26 28-27-27M143 141l51 51m-53-51 53 53.051M329 329l-27-26.951m26.5 28.451L302 304M139 141l55 55m-57-55 57 57m134.5 134.5L302 306m26.5 28.5L302 308M135 141l59 59m-61-59 60.5 60.5M328 336l-27-27m27 29-27-27M131 141l62 62m-64-62 63 63m136 136-27-27m26.5 28.5L301 315M127 141l64.5 64.5M125 141l66 66m136.5 136.5L301 317m26.5 28.5L301 319M123 141l67.5 67.5M121 141l69 69m137 137-27-27m27 29-27-27M119 141l71 71m-73-71 72 72m137.5 137.5L300 324m26.5 28.5L300 326M115 141l73.5 73.5M113 141l75 75m138.5 138.5L300 328m26.5 28.5L300 330M111 141l76.5 76.5M109 141l78 78m139 139-26-26m26 28-27-27M107 141l79 79m-81-79 80.5 80.5M326 362l-27-27m26.5 28.5L299 337.05M103 141c22.305 22.406 81.5 81.647 81.5 81.647M101 141l83.5 83.5m141 141L299 339m26.5 28.5L299 341M99 141l84.5 84.5M97 141l86 86m142.5 142.5L299 343m26 28-27-27M95 141l87.5 87.5M93 141l89 89m143 143-27-27m26.5 28.5L298 348M91 141l90.5 90.5M89 141l91.5 91.5m144 144L298 350m26.5 28.5L298 352M87 141l93 93m-95-93 94.602 94.602M324 380l-27-27m27 29-27-27M83 141l96 96m-98-96 97.412 97.412M324 384l-27-27m26.5 28.5L297 359M79 141l98.829 98.829M77 141l100.282 100.282M323.5 387.5 297 361m26.5 28.5L297 363M75 141l101.627 101.627M73 141l103 103m147.5 147.5L297 365m26 28-27-27M71 141l104.5 104.5M69 141l106 106m148 148-27-27m27 29-27-27M67 141l107.307 107.307M65 141l108.688 108.688M322.5 398.5 296 372m26.5 28.5L296 374M63 141l110.153 110.153M61 141l111.5 111.5m150 150L295 375m27 29-27-27M59 141l113 113M57 141l114.38 114.38M322 406l-27-27m27 29-27-27M55 141l115.761 115.761M53 141l117.19 117.19M321.5 409.5 295 383m26.5 28.5L295 385M51 141l89.5 89.5.5.5 28.643 28.643M51 143l89 89 1 1 28.119 28.119M321.5 413.5 295 387" class="Vector 2033"/>
      <path stroke="#7274B1" d="m51.5 145.5 87.937 87.937M321 415l-27-27m27 29-27-27M52 148l86.732 86.732M52 150l86 86m183 183-27-27m26.5 28.5L294 394M52.5 152.5l84.737 84.737M52.5 154.5l84 84m184 184L294 396m26.5 28.5L293 397M53 157l82.78 82.78M53 159l82 82m185 185-27-27m27 29-27-27M53 161l81.32 81.32M53.5 163.5l80.128 80.128M319 429l-26-26m24 26-25-25M54 166l78.809 78.809M54 168l78.114 78.114M316 430l-25-25m23.5 25.5L289 405M54 170l77.362 77.362M54 172l76.714 76.714M312.5 430.5 288 406m23 25-25-25M54 174l76 76m-75.5-73.5 74.757 74.757M309.5 431.5 285 407m23 25-25-25M55 179l73.5 73.5M55 181l72.772 72.772M306.5 432.5 281 407m24 26-25-25M55 183l72.163 72.163M55.5 185.5l70.901 70.901M303.5 433.5 278 408m23.5 25.5L277 409M56 188l69.765 69.765M56 190l69 69m175.5 175.5L275 409m23.5 25.5L274 410M56 192l68.344 68.344M56 194l67.668 67.668M297 435l-25-25m23.5 25.5L271 411M56.5 196.5 123 263m-66-64 65.278 65.278M294 436l-25-25m23.5 25.5L268 412M57 201l64.573 64.573M57 203l63.964 63.964M291 437l-25-25m23.5 25.5L264 412M57 205l63.259 63.259M57.5 207.5l62.073 62.073M288 438l-25-25m23 25-25-25M58 210l60.897 60.897M58 212l60.307 60.307M284.5 438.5 260 414m23 25-25-25M58 214l59.678 59.678M58.5 216.5 117 275m164.5 164.5L257 415m23 25-25-25M58.5 218.5l57.845 57.845M58.5 220.5l57.226 57.226M278.5 440.5 254 416m23 25-25-25M59 223l56 56m-56-54 55.5 55.5m161 161L251 417m23 25-25-25M59 227l54.822 54.822M59.5 229.5l53.751 53.751M272.5 442.5 248 418m22.5 24.5L246 418M60 232l52.603 52.603M60 234l52 52m157 157-25-25m-51-71-8.783-8.783M191 347l-8.601-8.601m7.101 9.101-8.894-8.894m7.045 9.045-8.838-8.838m6.911 8.911-8.596-8.596M184 348l-8.605-8.605m6.893 8.893L173.5 339.5m7.096 9.096-8.859-8.859m7.085 9.085-8.914-8.914M177 349l-8.813-8.813m7.158 9.158L166.5 340.5m19.414-2.586L194 346m-6.341-8.341 1.958 1.958m1.883 1.883 2.5 2.5m-25.5-81.5-28-28M168 264l-27.5-27.5m26.814 28.814-26.911-26.911m26.353 28.353-26.353-26.353m25.768 27.768L140.32 242.32m25.28 27.28-25.424-25.424m24.92 26.92L140 246m24.5 26.5L140 248m24 26-24.06-24.06m23.56 25.56-23.56-23.56m22.844 24.844-22.927-22.927m22.463 24.463-22.38-22.38m21.822 23.822-21.997-21.997m21.519 23.519-21.616-21.616m21.031 23.031-21.031-21.031m20.474 22.474L139.5 263.5m20 22-20.059-20.059m19.719 21.719L139.5 267.5m19.155 21.155L139.5 269.5m18.718 20.718-18.855-18.855m18.257 20.257-18.327-18.327m17.836 19.836-17.958-17.958m17.494 19.494-17.572-17.572m17.027 19.027-17.027-17.027m16.536 18.536L139 281m16.192 18.192L139 283m15.755 17.755L139 285m15.291 17.291-15.442-15.442m14.884 16.884-14.995-14.995m14.598 16.598-14.487-14.487m13.955 15.955-14.066-14.066m13.643 15.643-13.817-13.817M152 310l-13.436-13.436M151.5 311.5l-12.936-12.936M151 313l-12.627-12.627M150.5 314.5l-12-12m11.654 13.654-11.843-11.843m11.352 13.352-11.29-11.29m10.919 12.919-10.981-10.981m10.557 12.557-10.68-10.68m10.176 12.176-10.245-10.245" class="Vector 2034"/>
      <path stroke="#7274B1" d="M267.5 443.5 243 419M60 236l51.5 51.5m-51-49 50.359 50.359M266 444l-24.978-24.978M264.5 444.5 240 420M60.5 240.5l49.793 49.793M61 243l48.795 48.795M263 445l-25-25m23.5 25.5L237 421M61 245l48.316 48.316M61 247l47.789 47.789M260 446l-25-25m23.5 25.5-24.493-24.493M61.5 249.5l46.771 46.771M61.5 251.5l46.302 46.302M256.5 446.5l-24.493-24.493M255 447l-24-24M62 254l45.371 45.371M62 256l45 45m146.5 146.5L229 423m23 25-24-24M62 258l44.442 44.442M62.5 260.5 106 304m144.5 144.5L226 424m23 25-24-24M62.5 262.5l43.138 43.138M63 265l42.42 42.42M247.5 449.5 223 425m23 25-25-25M63 267l41.825 41.825M63 269l41.5 41.5M244 450l-24-24m22.5 24.5L218 426M63.5 271.5l40.618 40.618M63.5 273.5l40.245 40.245M241 451l-23.994-23.994M239.5 451.5l-24.494-24.494M64 276l39.42 39.42M64 278l39 39m135 135-24-24m22.5 24.5L212 428M64 280l38.674 38.674M64.5 282.5l37.917 37.917M235 453l-24-24m22.5 24.5L209 429M65 285l37.073 37.073M65 287l36.72 36.72M232 454l-24-24m22.5 24.5L206 430M65 289l36.385 36.385M65 291l36.138 36.138M229 455l-24-24m22 24-24-24M65.5 293.5l35.294 35.294M65.5 295.5l35 35m125 125L201 431m23 25-24-24M66 298l34.318 34.318M66 300l34 34m122.5 122.5L198 432m23 25-24-24M66 302l33.678 33.678M66.5 304.5l32.873 32.873M219.5 457.5 195 433m23 25-81.361-81.361M66.5 306.5l32.674 32.674M67 309l31.859 31.859M216.5 458.5l-81.846-81.846M214.5 458.5l-81.733-81.733M67 311l31.64 31.64M67.5 313.5l30.95 30.951M213 459l-82.127-82.127M211.5 459.5l-82.369-82.369M67.5 315.5l30.723 30.723M68 318l29.888 29.888M210 460l-82.869-82.869M208.5 460.5l-83.259-83.259M68 320l29.67 29.67M68 322l29.5 29.5 7.358 7.358M207 461l-83.726-83.726M205.5 461.5l-84.099-84.099M68 324l35.207 35.207M68.5 326.5l32.908 32.908M204 462l-84.5-84.5m83 85-84.901-84.901M68.5 328.5l31.119 31.119M69 331l28.808 28.808M201 463l-85.401-85.401M199 463l-85.279-85.279M69 333l28.63 28.629M194 376l-2-2m2 4-3.842-3.842M194 380l-5.731-5.731M194 382l-7.707-7.707m7.748 9.748L184.5 374.5M194 386l-11.5-11.5M194 388l-13.349-13.349m13.39 15.39-15.39-15.39m15.39 17.39-17.39-17.39m17.39 19.39-19.194-19.194m19.194 21.194L173 375m21 23-23-23m23.041 25.041-24.986-24.986m24.986 26.986L167 375m27.041 29.041-28.752-28.752M194 406l-30.577-30.577M194 408l-32.5-32.5M194 410l-34.5-34.5m34.541 36.541-36.38-36.38m36.38 38.38-38.325-38.325M194 416l-40.186-40.186m40.227 42.227-42.136-42.136m42.136 44.136L150 376m44.041 46.041L148 376m46 48-47.806-47.806m47.847 49.847-49.756-49.756m49.756 51.756L142.5 376.5M194 430l-53.438-53.438M194 432l-55.361-55.361m-31.96-17.96-7.012-7.012m8.833 6.833-7-7m8.671 6.671-6.825-6.825m8.508 6.508-6.702-6.702m8.348 6.348-6.62-6.62m8.62 6.62-6.897-6.897m8.671 6.671-6.851-6.851M119 357l-6.834-6.834m8.526 6.526-6.793-6.793m8.601 6.601-6.819-6.819m8.664 6.664L117.5 349.5m8.612 6.612-6.801-6.801m8.452 6.452L121 349m8.5 6.5-6.626-6.626m8.467 6.467-6.685-6.685M133 355l-6.5-6.5m8.237 6.237-6.567-6.567m8.33 6.33-6.587-6.587m8.466 6.466-3.774-3.774m5.531 3.531L136.5 350.5m5.34 3.34-4.699-4.699m6.488 4.488-6.55-6.55m8.35 6.35-8.155-8.155m9.89 7.89-9.89-9.89m11.562 9.562-11.503-11.503M150.5 352.5l-13.167-13.167m15.049 13.049-8.742-8.742-.64-.64-5.5-5.5m16.639 14.639-8.975-8.975M156 352l-9-9m10.589 8.589-8.916-8.916m10.684 8.684L150.5 342.5m10.603 8.603-8.788-8.788m10.556 8.556L154 342m10.702 8.702-8.938-8.938M166.5 350.5l-9-9m10.77 8.77-8.937-8.937M170 350l-9-9m10.698 8.698-8.856-8.856m10.613 8.613L164.5 340.5m-21.167.833L137.5 335.5m6.339 4.339L137.5 333.5m6.792 4.792L137.5 331.5m7.159 5.159-7.037-7.037M145 335l-7.378-7.378m7.878 5.878-7.724-7.724m8.119 6.119-8.119-8.119m8.547 6.547-8.547-8.547m8.975 6.975-8.852-8.852m9.316 7.316-9.316-9.316m9.708 7.708L138 316m10 8-9.916-9.916m-4.748 35.252-1.622-1.622" class="Vector 2035"/>
      <path stroke="#7274B1" d="m69 335 29.151 29.151M196 462l-84-84m81 83-83.842-83.842M69.5 337.5l29.359 29.359M69.5 339.5l30.728 30.728M190.5 460.5l-85.671-85.671M188 460 70 342m0 2 115 115m-3-1L70 346m.5 2.5 109 109m-2.5-.5L71 351m0 2 103 103m-3-1L71 355m.5 2.5 97 97m-2.5-.5-94.5-94.5m.5 2.5 91 91m-3-1-88-88m0 2 85.5 85.5m-2.5-.5-83-83m.5 2.5L152 450m-3-1-76-76m0 2 73.5 73.5m-2.5-.5-71-71m.5 2.5L141 447m-3-1-64-64m0 2 61.5 61.5m-2.5-.5-59-59m.5 2.5L130 444m-3-1-52.5-52.5m0 2 50 50m-2.5-.5-47-47m0 2 44 44m-2.5-.5L75 399m.5 2.5L114 440m-3-1-35.5-35.5m.5 2.5 32 32m-3-1-29-29m0 2 27 27m-3-1-24-24m.5 2.5 21 21m-3-1L77 417m0 2 15 15m-3-1-12-12m.5 2.5 9 9m-3-1-6-6m0 2L81 431m-2.5-.5-1-1" class="Vector 2036"/>
    </g>
    <path fill="#7274B1" d="M161.84 72.8V42.76h6.08l.24 4.76-1.2-.36c.187-.88.64-1.68 1.36-2.4.72-.72 1.627-1.293 2.72-1.72a9.293 9.293 0 0 1 3.52-.68c1.813 0 3.427.48 4.84 1.44 1.413.933 2.52 2.227 3.32 3.88.827 1.627 1.24 3.52 1.24 5.68 0 2.133-.413 4.027-1.24 5.68-.8 1.653-1.92 2.96-3.36 3.92-1.413.933-3.04 1.4-4.88 1.4-1.2 0-2.347-.227-3.44-.68-1.093-.453-2.013-1.067-2.76-1.84-.747-.773-1.24-1.613-1.48-2.52l1.48-.56V72.8h-6.44Zm11.08-13.84c.96 0 1.8-.227 2.52-.68.72-.48 1.28-1.133 1.68-1.96.4-.827.6-1.813.6-2.96 0-1.12-.2-2.093-.6-2.92-.4-.853-.96-1.507-1.68-1.96-.693-.48-1.533-.72-2.52-.72-.987 0-1.84.227-2.56.68-.72.453-1.28 1.107-1.68 1.96-.4.853-.6 1.84-.6 2.96 0 1.147.2 2.133.6 2.96.4.827.96 1.48 1.68 1.96.72.453 1.573.68 2.56.68ZM188.207 64V34.4h6.28v12.68l-1.28.48c.294-.96.814-1.827 1.56-2.6a8.853 8.853 0 0 1 2.76-1.92 8.1 8.1 0 0 1 3.36-.72c1.6 0 2.947.333 4.04 1 1.094.64 1.92 1.613 2.48 2.92.56 1.28.84 2.853.84 4.72V64h-6.44V51.48c0-.853-.12-1.56-.36-2.12s-.613-.973-1.12-1.24c-.48-.293-1.08-.427-1.8-.4-.56 0-1.08.093-1.56.28-.48.16-.893.413-1.24.76a3.88 3.88 0 0 0-.84 1.12c-.186.427-.28.893-.28 1.4V64h-6.4Zm25.391 8.8V42.76h6.08l.24 4.76-1.2-.36c.186-.88.64-1.68 1.36-2.4.72-.72 1.626-1.293 2.72-1.72a9.293 9.293 0 0 1 3.52-.68c1.813 0 3.426.48 4.84 1.44 1.413.933 2.52 2.227 3.32 3.88.826 1.627 1.24 3.52 1.24 5.68 0 2.133-.414 4.027-1.24 5.68-.8 1.653-1.92 2.96-3.36 3.92-1.414.933-3.04 1.4-4.88 1.4-1.2 0-2.347-.227-3.44-.68-1.094-.453-2.014-1.067-2.76-1.84-.747-.773-1.24-1.613-1.48-2.52l1.48-.56V72.8h-6.44Zm11.08-13.84c.96 0 1.8-.227 2.52-.68.72-.48 1.28-1.133 1.68-1.96.4-.827.6-1.813.6-2.96 0-1.12-.2-2.093-.6-2.92-.4-.853-.96-1.507-1.68-1.96-.694-.48-1.534-.72-2.52-.72-.987 0-1.84.227-2.56.68-.72.453-1.28 1.107-1.68 1.96-.4.853-.6 1.84-.6 2.96 0 1.147.2 2.133.6 2.96.4.827.96 1.48 1.68 1.96.72.453 1.573.68 2.56.68Z" class="php"/>
    <path fill="#F9AB3B" d="M108.52 114V86h6.08l10.2 16.6-4.36-.04L130.76 86h5.84v28H130v-8.72c0-2.4.053-4.56.16-6.48a68.19 68.19 0 0 1 .64-5.72l.76 2.08-7.76 12.04h-2.64l-7.6-11.96.76-2.16c.293 1.787.493 3.627.6 5.52.133 1.867.2 4.093.2 6.68V114h-6.6Zm37.117 9.2 4.84-11.4.08 3.28-10.24-22.32h7.24l4.48 10.68c.24.533.467 1.107.68 1.72.214.613.374 1.2.48 1.76l-.88.52c.16-.4.334-.893.52-1.48.214-.613.44-1.267.68-1.96l3.92-11.24h7.28l-9.04 21.24-3.68 9.2h-6.36Zm18.229-9.2 11.08-28h5.76l11 28h-6.88l-5.28-14.2c-.213-.56-.426-1.16-.64-1.8a190.7 190.7 0 0 1-.64-1.96 85.448 85.448 0 0 0-.64-2 51.444 51.444 0 0 1-.48-1.84l1.2-.04c-.16.667-.346 1.32-.56 1.96-.186.64-.386 1.28-.6 1.92-.186.613-.4 1.24-.64 1.88-.24.613-.466 1.253-.68 1.92l-5.28 14.16h-6.72Zm5.28-5.36 2.12-5.12h12.88l2.08 5.12h-17.08Zm32.632 5.8c-1.84 0-3.48-.467-4.92-1.4-1.413-.96-2.533-2.267-3.36-3.92-.826-1.68-1.24-3.587-1.24-5.72 0-2.133.414-4.027 1.24-5.68.827-1.68 1.96-3 3.4-3.96s3.094-1.44 4.96-1.44c.96 0 1.88.147 2.76.44.88.293 1.68.693 2.4 1.2a6.893 6.893 0 0 1 1.76 1.76c.454.64.72 1.307.8 2l-1.52.36V84.4h6.44V114h-5.96l-.36-4.84 1.28.2c-.08.667-.346 1.307-.8 1.92-.426.613-.986 1.16-1.68 1.64-.693.453-1.493.813-2.4 1.08-.88.293-1.813.44-2.8.44Zm1.64-5.32c.987 0 1.84-.24 2.56-.72s1.267-1.147 1.64-2c.4-.853.6-1.853.6-3 0-1.173-.2-2.187-.6-3.04-.373-.853-.92-1.52-1.64-2-.72-.48-1.573-.72-2.56-.72-.986 0-1.84.24-2.56.72-.693.48-1.24 1.147-1.64 2-.4.853-.6 1.867-.6 3.04 0 1.147.2 2.147.6 3 .4.853.947 1.52 1.64 2 .72.48 1.574.72 2.56.72ZM219.87 114V92.76h6.08l.2 3.84-.84.04c.32-.693.72-1.307 1.2-1.84a7.209 7.209 0 0 1 1.68-1.32 8.371 8.371 0 0 1 1.96-.84 7.975 7.975 0 0 1 2.08-.28c1.04 0 1.987.16 2.84.48.854.32 1.6.84 2.24 1.56.64.693 1.147 1.64 1.52 2.84l-1-.08.32-.64a6.894 6.894 0 0 1 1.32-1.72 8.05 8.05 0 0 1 1.84-1.32 8.732 8.732 0 0 1 2.08-.84 8.284 8.284 0 0 1 2.08-.28c1.68 0 3.08.333 4.2 1 1.12.64 1.96 1.613 2.52 2.92.587 1.307.88 2.893.88 4.76V114h-6.44v-12.44c0-.853-.12-1.56-.36-2.12s-.6-.973-1.08-1.24c-.453-.293-1.026-.44-1.72-.44-.56 0-1.08.093-1.56.28-.453.187-.853.44-1.2.76-.32.32-.573.693-.76 1.12a3.57 3.57 0 0 0-.28 1.44V114h-6.44v-12.48c0-.8-.12-1.48-.36-2.04s-.6-.987-1.08-1.28c-.48-.293-1.04-.44-1.68-.44-.56 0-1.08.093-1.56.28-.453.187-.853.44-1.2.76-.32.32-.573.693-.76 1.12-.186.427-.28.893-.28 1.4V114h-6.44Zm38.877 0V92.76h6.4V114h-6.4Zm3.2-25.44c-1.2 0-2.147-.28-2.84-.84-.667-.587-1-1.413-1-2.48 0-.96.347-1.747 1.04-2.36.693-.613 1.627-.92 2.8-.92 1.2 0 2.133.293 2.8.88.667.56 1 1.36 1 2.4 0 .987-.347 1.787-1.04 2.4-.667.613-1.587.92-2.76.92ZM271.16 114V92.76h6.08l.2 4.32-1.28.48c.294-.96.814-1.827 1.56-2.6a8.853 8.853 0 0 1 2.76-1.92 8.1 8.1 0 0 1 3.36-.72c1.6 0 2.947.333 4.04 1 1.094.64 1.92 1.613 2.48 2.92.56 1.28.84 2.853.84 4.72V114h-6.44v-12.52c0-.853-.12-1.56-.36-2.12s-.613-.973-1.12-1.24c-.48-.293-1.08-.427-1.8-.4-.56 0-1.08.093-1.56.28-.48.16-.893.413-1.24.76a3.88 3.88 0 0 0-.84 1.12c-.186.427-.28.893-.28 1.4V114h-6.4Z" class="MyAdmin"/>
  </g>
</svg>
