

<svg xmlns="http://www.w3.org/2000/svg" width="409" height="325" fill="none" viewBox="0 0 409 325">
  <g class="Frame 9">
    <path fill="#fff" d="M0 0h409v325H0z"/>
    <g class="AllObjects">
      <path fill="#3F3D56" d="M352.578 32H83.426c-2.234.003-4.375 1.105-5.954 3.063-1.58 1.959-2.468 4.614-2.47 7.384v176.106c.002 2.77.89 5.425 2.47 7.384 1.58 1.958 3.72 3.06 5.954 3.063h269.152c2.234-.003 4.375-1.105 5.954-3.063 1.579-1.959 2.468-4.614 2.47-7.384V42.447c-.002-2.77-.891-5.425-2.47-7.384-1.579-1.958-3.72-3.06-5.954-3.063Zm7.622 186.553c-.002 2.506-.806 4.909-2.235 6.681-1.428 1.772-3.366 2.769-5.387 2.771H83.426c-2.021-.002-3.959-.999-5.388-2.771-1.428-1.772-2.232-4.175-2.234-6.681V42.447c.002-2.506.806-4.909 2.234-6.681 1.43-1.772 3.367-2.769 5.388-2.771h269.152c2.021.002 3.959.999 5.387 2.77 1.429 1.773 2.233 4.176 2.235 6.682v176.106Z" class="Vector"/>
      <path fill="#3F3D56" d="M331.1 60.39H101.857a.34.34 0 0 1-.267-.145.58.58 0 0 1-.111-.352.58.58 0 0 1 .111-.352.34.34 0 0 1 .267-.146H331.1c.1 0 .196.053.268.146.071.093.111.22.111.352 0 .132-.04.258-.111.352a.342.342 0 0 1-.268.145Z" class="Vector"/>
      <path fill="#3F3D56" d="M187.093 207.437a.492.492 0 0 1-.351-.146.492.492 0 0 1-.146-.351V43.295a.495.495 0 0 1 .497-.498.497.497 0 0 1 .498.498V206.94a.495.495 0 0 1-.498.497Zm75.163 0a.495.495 0 0 1-.498-.497V43.295a.495.495 0 0 1 .498-.498.5.5 0 0 1 .497.498V206.94a.496.496 0 0 1-.497.497Z" class="Vector"/>
      <path fill="#6C63FF" d="M138.768 111.731H120.58a2.243 2.243 0 0 1-2.24-2.239V88.045a2.241 2.241 0 0 1 2.24-2.239h18.188a2.242 2.242 0 0 1 2.24 2.239v21.448a2.243 2.243 0 0 1-2.24 2.238Zm160.777-10.446h-18.188a2.238 2.238 0 0 1-2.24-2.238V77.6a2.242 2.242 0 0 1 2.24-2.238h18.188a2.241 2.241 0 0 1 2.24 2.238v21.448a2.238 2.238 0 0 1-2.24 2.238Z" class="Vector"/>
      <path fill="#0BAB40" d="M290.586 145.554h-18.188a2.243 2.243 0 0 1-2.24-2.238v-21.448a2.243 2.243 0 0 1 2.24-2.238h18.188a2.24 2.24 0 0 1 2.24 2.238v21.448a2.242 2.242 0 0 1-2.24 2.238Zm-76.158 33.823H196.24a2.238 2.238 0 0 1-2.24-2.238v-21.448a2.243 2.243 0 0 1 2.24-2.238h18.188a2.243 2.243 0 0 1 2.24 2.238v21.448a2.243 2.243 0 0 1-2.24 2.238Z" class="Vector"/>
      <path fill="#FF6584" d="M122.342 151.025h-18.188a2.238 2.238 0 0 1-2.24-2.238v-21.448a2.243 2.243 0 0 1 2.24-2.238h18.188a2.239 2.239 0 0 1 2.24 2.238v21.448a2.238 2.238 0 0 1-2.24 2.238Z" class="Vector"/>
      <path fill="#0BAB40" d="M173.612 111.731h-18.188a2.246 2.246 0 0 1-2.24-2.239V88.045a2.236 2.236 0 0 1 2.24-2.239h18.188a2.242 2.242 0 0 1 2.24 2.239v21.448a2.243 2.243 0 0 1-2.24 2.238Z" class="Vector"/>
      <path fill="#408080" d="M158.721 52.248h-28.373a1.989 1.989 0 1 1 0-3.98h28.373a1.993 1.993 0 0 1 1.991 1.99 1.99 1.99 0 0 1-1.991 1.99Zm80.141 0h-28.373a1.993 1.993 0 0 1-1.991-1.99 1.99 1.99 0 0 1 1.991-1.99h28.373a1.99 1.99 0 1 1 0 3.98Zm75.162 0h-28.373a1.993 1.993 0 0 1-1.991-1.99 1.99 1.99 0 0 1 1.991-1.99h28.373a1.993 1.993 0 0 1 1.991 1.99 1.99 1.99 0 0 1-1.991 1.99Z" class="Vector"/>
      <path fill="#FFB8B8" d="M95.174 197.932a5.01 5.01 0 0 1-3.645-2.155 5.004 5.004 0 0 1-.686-4.177l-12.759-11.868 6.746-1.71 12.546 10.168a5.032 5.032 0 0 1 3.229 5.849 5.032 5.032 0 0 1-5.431 3.893Zm17.618 87.723h6.103l2.903-23.521h-9.007l.001 23.521Z" class="Vector"/>
      <path fill="#2F2E41" d="M130.664 291.317h-19.179v-7.404l11.769-.001a7.41 7.41 0 0 1 7.41 7.405Z" class="Vector"/>
      <path fill="#FFB8B8" d="m70.95 281.252 5.897 1.569 8.86-21.984-8.703-2.314-6.055 22.729Z" class="Vector"/>
      <path fill="#2F2E41" d="m86.764 291.318-18.534-4.929 1.906-7.156 11.373 3.025a7.41 7.41 0 0 1 4.505 3.443 7.399 7.399 0 0 1 .75 5.617Zm33.771-10.117h-9.311a2.348 2.348 0 0 1-2.353-2.135l-5.653-58.659a1.861 1.861 0 0 0-1.675-1.677 1.868 1.868 0 0 0-1.969 1.321l-16.413 54.814a2.36 2.36 0 0 1-2.837 1.614l-8.663-2.164a2.37 2.37 0 0 1-1.457-1.083 2.357 2.357 0 0 1-.259-1.796c.142-.552 14.142-55.225 14.264-55.787 3.173-23.362 6.968-29.623 9.007-32.985.168-.279.323-.535.463-.777.175-.302 1.25-3.305 1.933-5.254a2.38 2.38 0 0 1 1.212-1.481c8.567-4.378 18.59-1.348 21.458-.315.476.168.884.484 1.164.903 8.604 12.968 4.382 88.285 3.448 103.251a2.366 2.366 0 0 1-2.359 2.21Z" class="Vector"/>
      <path fill="#CCC" d="m95.21 179.005-.088-.085c-.165-.16-16.454-16.106-14.346-30.851.902-6.307 6.008-10.337 14.768-11.655 3.218-.477 6.5.222 9.243 1.969a13.49 13.49 0 0 1 5.689 7.542l8.661 29.588-23.927 3.492Z" class="Vector"/>
      <path fill="#CCC" d="m86.871 190.347-11.607-11.526a6.525 6.525 0 0 1-1.732-6.163l5.62-22.84a5.143 5.143 0 0 1 2.481-3.262 5.155 5.155 0 0 1 4.079-.419 5.182 5.182 0 0 1 3.39 6.363l-5.917 20.094 9.567 10.264-5.88 7.489Z" class="Vector"/>
      <path fill="#A0616A" d="M261.535 286.176h-6.103l-2.903-23.521h9.007l-.001 23.521Z" class="Vector"/>
      <path fill="#2F2E41" d="M251.074 284.433h11.769v7.405h-19.179a7.413 7.413 0 0 1 2.17-5.236 7.412 7.412 0 0 1 5.24-2.169Z" class="Vector"/>
      <path fill="#A0616A" d="m305.814 279.268-5.551 2.534-12.421-20.189 8.193-3.74 9.779 21.395Z" class="Vector"/>
      <path fill="#2F2E41" d="m295.574 282.027 10.706-4.887 3.078 6.736-17.445 7.962a7.395 7.395 0 0 1 1.316-8.122 7.42 7.42 0 0 1 2.345-1.689Z" class="Vector"/>
      <path fill="#A0616A" d="M288.042 206.869a4.996 4.996 0 0 0 1.629-5.875 5.011 5.011 0 0 0-1.231-1.785l7.174-16.265-9.113 1.544-5.415 15.209a5.023 5.023 0 0 0 .29 6.673 5.033 5.033 0 0 0 6.666.499Z" class="Vector"/>
      <path fill="#2F2E41" d="M261.147 279.974h-5.829a2.25 2.25 0 0 1-2.234-2.076l-3.18-84.836a2.247 2.247 0 0 1 .67-1.765 2.25 2.25 0 0 1 1.782-.625l33.716 3.578a2.24 2.24 0 0 1 2.022 2.185l.706 37.422c.004.203.044.404.117.594l13.83 35.839a2.223 2.223 0 0 1-.049 1.728 2.237 2.237 0 0 1-1.266 1.177l-5.908 2.175a2.242 2.242 0 0 1-2.766-1.076l-16.99-33.012a2.223 2.223 0 0 1-.201-.568l-2.903-13.974a1.746 1.746 0 0 0-1.784-1.386 1.74 1.74 0 0 0-1.652 1.541l-5.855 51.095a2.242 2.242 0 0 1-2.226 1.984Z" class="Vector"/>
      <path fill="#6C63FF" d="M272.433 200.819a43.66 43.66 0 0 1-23.332-7.062l-.119-.082.013-.144 4.676-54.424a7.672 7.672 0 0 1 7.267-6.994c6.061-.279 14.202.072 18.56 3.316 6.585 4.901 9.759 12.282 8.708 20.25-2.18 16.523.29 38.812.578 41.299l.021.179-.164.075a38.468 38.468 0 0 1-16.208 3.587Z" class="Vector"/>
      <path fill="#6C63FF" d="M288.729 197.07a2.488 2.488 0 0 1-1.833-.807l-2.674-2.915a2.503 2.503 0 0 1-.552-2.385l6.098-20.624-9.278-19.47a4.38 4.38 0 0 1 3.403-6.231 4.383 4.383 0 0 1 4.416 2.27l12.591 20.414a5.937 5.937 0 0 1 .359 5.57L291 195.606a2.486 2.486 0 0 1-2.271 1.464Z" class="Vector"/>
      <path fill="#3F3D56" d="M389.09 292H21.594a.591.591 0 0 1-.549-.819.595.595 0 0 1 .55-.366H389.09a.59.59 0 0 1 .549.366.59.59 0 0 1-.322.774.59.59 0 0 1-.227.045Z" class="Vector"/>
    </g>
    <path fill="#FF6584" d="M325.928 137.596H307.74a2.243 2.243 0 0 1-2.24-2.239V113.91a2.24 2.24 0 0 1 2.24-2.239h18.188a2.243 2.243 0 0 1 2.24 2.239v21.447a2.24 2.24 0 0 1-2.24 2.239Z" class="ThirdObjectMove"/>
    <path fill="#6C63FF" d="M223.389 124.663h-18.188a2.238 2.238 0 0 1-2.24-2.238v-21.448a2.242 2.242 0 0 1 2.24-2.238h18.188a2.243 2.243 0 0 1 2.24 2.238v21.448a2.243 2.243 0 0 1-2.24 2.238Z" class="SecondObjectMove"/>
    <path fill="#6C63FF" d="M164.653 172.911h-18.188a2.238 2.238 0 0 1-2.24-2.238v-21.448a2.238 2.238 0 0 1 2.24-2.238h18.188a2.238 2.238 0 0 1 2.24 2.238v21.448a2.243 2.243 0 0 1-2.24 2.238Z" class="FirstObjectMove"/>
    
    
    <g class="HandOneMove">
    <animateTransform 
        attributeName="transform" 
        type="rotate" 
        values="0 0 0;1 0 0;1.5 0 0;1 0 0;0 0 0"   
        dur="5s" 
        repeatCount="indefinite"
      />
      <path fill="#FFB8B8" d="M149.128 151.013a4.994 4.994 0 0 1-3.236 2.73 5.018 5.018 0 0 1-2.167.1 5.018 5.018 0 0 1-2.005-.826l-15.495 8.025.684-6.817 13.737-8.495a5.035 5.035 0 0 1 8.754 1.72 5.025 5.025 0 0 1-.272 3.563Z" class="Vector"/>
      <path fill="#CCC" d="m140.028 156.088-15.106 6.522a6.37 6.37 0 0 1-3.192.479 6.37 6.37 0 0 1-3.018-1.144l-19.208-13.753a5.153 5.153 0 0 1-1.954-5.601 5.147 5.147 0 0 1 .971-1.853 5.18 5.18 0 0 1 7.172-.78l16.471 12.953 13.091-5.061 4.773 8.238Z" class="Vector"/>
    </g>

    <g class="HandTwoMove">
      <path fill="#A0616A" d="M202.555 157.673a4.995 4.995 0 0 0 1.98.886 4.992 4.992 0 0 0 2.169-.034 5 5 0 0 0 3.317-2.631l17.64 2.286-4.054-8.301-16.13-.898a5.03 5.03 0 0 0-4.922 8.692Z" class="Vector"/>
      <path fill="#6C63FF" d="M241.435 162.207a6.71 6.71 0 0 1-.918-.063l-27.751-3.847a2.764 2.764 0 0 1-2.274-1.96 2.775 2.775 0 0 1 .286-2.204l2.297-3.804a2.772 2.772 0 0 1 2.367-1.336h.004l24.189.027 18.066-16.174a4.896 4.896 0 0 1 8.075 4.561 4.892 4.892 0 0 1-1.366 2.56l-18.026 20.034a6.653 6.653 0 0 1-4.949 2.206Z" class="Vector"/>
    </g>

    <g class="HeadTwoMove">
      <path fill="#A0616A" d="M264.05 126.728c6.752 0 12.225-5.469 12.225-12.216 0-6.748-5.473-12.217-12.225-12.217s-12.226 5.469-12.226 12.217c0 6.747 5.474 12.216 12.226 12.216Z" class="Vector"/>
      <path fill="#2F2E41" d="M265.439 125.38c1.118-2.584 2.063-6.025-.08-7.852-1.243-1.059-3.033-1.062-4.662-1.193-4.588-.372-9.311-2.481-11.553-6.498-2.243-4.017-.99-9.99 3.24-11.803 2.852-1.221 6.122-.389 9.107.457l8.962 2.54c2.663.754 5.459 1.586 7.377 3.582 3.057 3.182 2.829 8.561.4 12.245-2.428 3.684-6.086 7.526-10.273 8.924l-2.518-.402Z" class="Vector"/>
    </g>

    <g class="Group 20">
      <g class="Frame 10"  clip-path="url(#a)">
      <animateTransform 
          attributeName="transform"
          type="rotate"
          from="7 86 132"
          to="-5 86 132"   
          dur="4s"           
          repeatCount="indefinite"
          />
   <!--  <style>
    .Frame 10 {
      transform-origin: 86px 132px; /* Establecemos el punto de rotación */
      animation: rotateAnimation 4s infinite linear; /* Aplicamos la animación */
    }

    @keyframes rotateAnimation {
      0% {
        transform: rotate(7deg);
      }
      100% {
        transform: rotate(-5deg);
      }
    }
  </style> -->
        
      <path stroke="#000" d="M69 105h40v56H69z"/>
        <g class="HeadOneMove">
          <path fill="#FFB8B8" d="M96.507 132.62c6.752 0 12.225-5.469 12.225-12.216 0-6.747-5.473-12.217-12.225-12.217s-12.226 5.47-12.226 12.217c0 6.747 5.474 12.216 12.226 12.216Z" class="Vector"/>
          <path fill="#2F2E41" d="M98.534 124.318c1.508-1.888 4.326-1.989 6.398-3.235 2.713-1.632 3.835-5.278 2.961-8.32-.875-3.041-3.454-5.412-6.411-6.546-2.956-1.133-6.246-1.147-9.365-.599-4.645.816-9.217 2.982-12.05 6.749-2.832 3.767-3.553 9.284-.986 13.237 1.18 1.817 3.001 3.316 3.472 5.43.619 2.775-1.33 5.452-3.416 7.385-2.378 2.201-5.106 4.045-7.19 6.527-2.082 2.482-3.471 5.872-2.52 8.969.796 2.595 3.113 4.506 5.655 5.464 2.54.957 5.309 1.095 8.024 1.148 2.637.052 5.438-.012 7.659-1.433 2.378-1.521 3.647-4.406 3.741-7.226.094-2.819-.85-5.582-2.113-8.105-.753-1.503-1.629-2.96-2.13-4.566-.5-1.605-.587-3.427.215-4.906.843-1.554 2.547-2.491 4.283-2.832.09-.018.185-.033.285-.047a3.685 3.685 0 0 0 3.153-4.292c-.198-1.101-.181-2.155.335-2.802Z" class="Vector"/>
        </g>
      </g>
    </g>
  </g>
  <defs>

    <clipPath id="a" class="a">
      <path fill="#fff" d="M69 105h40v56H69z"/>
    </clipPath>
  </defs>
</svg>
